<?xml version="1.0" encoding="UTF-8" standalone="no"?>
<svg
   xmlns:dc="http://purl.org/dc/elements/1.1/"
   xmlns:cc="http://creativecommons.org/ns#"
   xmlns:rdf="http://www.w3.org/1999/02/22-rdf-syntax-ns#"
   xmlns:svg="http://www.w3.org/2000/svg"
   xmlns="http://www.w3.org/2000/svg"
   xmlns:sodipodi="http://sodipodi.sourceforge.net/DTD/sodipodi-0.dtd"
   xmlns:inkscape="http://www.inkscape.org/namespaces/inkscape"
   version="1.1"
   x="0px"
   y="0px"
   viewBox="0 0 26 32"
   enable-background="new 0 0 32 32"
   xml:space="preserve"
   id="svg340"
   sodipodi:docname="about-logo2.svg"
   width="26"
   height="32"
   inkscape:version="0.92.4 (5da689c313, 2019-01-14)"><metadata
     id="metadata346"><rdf:RDF><cc:Work
         rdf:about=""><dc:format>image/svg+xml</dc:format><dc:type
           rdf:resource="http://purl.org/dc/dcmitype/StillImage" /><dc:title></dc:title></cc:Work></rdf:RDF></metadata><defs
     id="defs344" /><sodipodi:namedview
     pagecolor="#ffffff"
     bordercolor="#666666"
     borderopacity="1"
     objecttolerance="10"
     gridtolerance="10"
     guidetolerance="10"
     inkscape:pageopacity="0"
     inkscape:pageshadow="2"
     inkscape:window-width="1366"
     inkscape:window-height="706"
     id="namedview342"
     showgrid="false"
     inkscape:zoom="5.9"
     inkscape:cx="22.010878"
     inkscape:cy="1.0561743"
     inkscape:window-x="-8"
     inkscape:window-y="-8"
     inkscape:window-maximized="1"
     inkscape:current-layer="svg340" /><g
     display="none"
     id="g242"
     style="display:none"
     transform="translate(-3)"><rect
       x="8"
       y="24"
       display="inline"
       width="16"
       height="1"
       id="rect224"
       style="display:inline;fill:#000000" /><rect
       x="8"
       y="27"
       display="inline"
       width="16"
       height="1"
       id="rect226"
       style="display:inline;fill:#000000" /><path
       display="inline"
       d="m 16,8.914 c 1.464,0 2.654,1.191 2.654,2.654 0,1.464 -1.191,2.654 -2.654,2.654 -1.464,0 -2.654,-1.191 -2.654,-2.654 0,-1.463 1.19,-2.654 2.654,-2.654"
       id="path228"
       inkscape:connector-curvature="0"
       style="display:inline;fill:#000000" /><path
       display="inline"
       d="M 18.934,16.055 16,18.266 13.066,16.054 C 9.455,17.137 9.5,20.794 9.5,20.794 H 16 v 0 h 6.5 c 0,0 0.045,-3.656 -3.566,-4.739 z"
       id="path230"
       inkscape:connector-curvature="0"
       style="display:inline;fill:#000000" /><g
       display="inline"
       id="g240"
       style="display:inline"><g
         id="g236"><g
           id="g234"><path
             d="M 27,2 V 30 H 5 V 2 H 27 M 29,0 H 3 v 32 h 26 z"
             id="path232"
             inkscape:connector-curvature="0"
             style="fill:#000000" /></g></g><line
         stroke-miterlimit="10"
         x1="3"
         y1="5"
         x2="29"
         y2="5"
         id="line238"
         style="fill:#000000;stroke:#414753;stroke-width:2;stroke-miterlimit:10" /></g></g><g
     display="none"
     id="g256"
     style="display:none"
     transform="translate(-3)"><rect
       x="8"
       y="24"
       display="inline"
       width="16"
       height="1"
       id="rect244"
       style="display:inline;fill:#000000" /><rect
       x="8"
       y="27"
       display="inline"
       width="16"
       height="1"
       id="rect246"
       style="display:inline;fill:#000000" /><path
       display="inline"
       d="m 16,8.914 c 1.464,0 2.654,1.191 2.654,2.654 0,1.464 -1.191,2.654 -2.654,2.654 -1.464,0 -2.654,-1.191 -2.654,-2.654 0,-1.463 1.19,-2.654 2.654,-2.654"
       id="path248"
       inkscape:connector-curvature="0"
       style="display:inline;fill:#000000" /><path
       display="inline"
       d="M 18.934,16.055 16,18.266 13.066,16.054 C 9.455,17.137 9.5,20.794 9.5,20.794 H 16 v 0 h 6.5 c 0,0 0.045,-3.656 -3.566,-4.739 z"
       id="path250"
       inkscape:connector-curvature="0"
       style="display:inline;fill:#000000" /><path
       display="inline"
       d="M 27,2 V 30 H 5 V 2 H 27 M 29,0 H 3 v 32 h 26 z"
       id="path252"
       inkscape:connector-curvature="0"
       style="display:inline;fill:#000000" /><rect
       x="3"
       y="4"
       display="inline"
       width="26"
       height="2"
       id="rect254"
       style="display:inline;fill:#000000" /></g><g
     display="none"
     id="g270"
     style="display:none"
     transform="translate(-3)"><rect
       x="8"
       y="24"
       display="inline"
       width="16"
       height="1"
       id="rect258"
       style="display:inline" /><rect
       x="8"
       y="27"
       display="inline"
       width="16"
       height="1"
       id="rect260"
       style="display:inline" /><path
       display="inline"
       d="m 16,8.914 c 1.464,0 2.654,1.191 2.654,2.654 0,1.464 -1.191,2.654 -2.654,2.654 -1.464,0 -2.654,-1.191 -2.654,-2.654 0,-1.463 1.19,-2.654 2.654,-2.654"
       id="path262"
       inkscape:connector-curvature="0"
       style="display:inline;fill:#000000" /><path
       display="inline"
       d="M 18.934,16.055 16,18.266 13.066,16.054 C 9.455,17.137 9.5,20.794 9.5,20.794 H 16 v 0 h 6.5 c 0,0 0.045,-3.656 -3.566,-4.739 z"
       id="path264"
       inkscape:connector-curvature="0"
       style="display:inline;fill:#000000" /><path
       display="inline"
       d="M 27,2 V 30 H 5 V 2 H 27 M 29,0 H 3 v 32 h 26 z"
       id="path266"
       inkscape:connector-curvature="0"
       style="display:inline" /><rect
       x="3"
       y="4"
       display="inline"
       width="26"
       height="2"
       id="rect268"
       style="display:inline" /></g><g
     display="none"
     id="g284"
     style="display:none"
     transform="translate(-3)"><rect
       x="8"
       y="24"
       display="inline"
       width="16"
       height="1"
       id="rect272"
       style="display:inline;fill:#000000" /><rect
       x="8"
       y="27"
       display="inline"
       width="16"
       height="1"
       id="rect274"
       style="display:inline;fill:#000000" /><path
       display="inline"
       d="m 16,8.914 c 1.464,0 2.654,1.191 2.654,2.654 0,1.464 -1.191,2.654 -2.654,2.654 -1.464,0 -2.654,-1.191 -2.654,-2.654 0,-1.463 1.19,-2.654 2.654,-2.654"
       id="path276"
       inkscape:connector-curvature="0"
       style="display:inline" /><path
       display="inline"
       d="M 18.934,16.055 16,18.266 13.066,16.054 C 9.455,17.137 9.5,20.794 9.5,20.794 H 16 v 0 h 6.5 c 0,0 0.045,-3.656 -3.566,-4.739 z"
       id="path278"
       inkscape:connector-curvature="0"
       style="display:inline" /><path
       display="inline"
       d="M 27,2 V 30 H 5 V 2 H 27 M 29,0 H 3 v 32 h 26 z"
       id="path280"
       inkscape:connector-curvature="0"
       style="display:inline;fill:#000000" /><rect
       x="3"
       y="4"
       display="inline"
       width="26"
       height="2"
       id="rect282"
       style="display:inline;fill:#000000" /></g><g
     display="none"
     id="g318"
     style="display:none"
     transform="translate(-3)"><g
       display="inline"
       id="g316"
       style="display:inline"><g
         id="g314"><g
           id="g288"><rect
             x="4.5"
             y="3.5"
             width="24"
             height="1"
             id="rect286"
             style="fill:#000000" /></g><g
           id="g292"><rect
             x="8.5"
             y="23.5"
             width="16"
             height="1"
             id="rect290"
             style="fill:#000000" /></g><g
           id="g296"><rect
             x="8.5"
             y="26.5"
             width="16"
             height="1"
             id="rect294"
             style="fill:#000000" /></g><g
           id="g302"><g
             id="g300"><path
               d="m 28.5,0.5 v 30 h -24 v -30 h 24 m 1,-1 h -26 v 32 h 26 z"
               id="path298"
               inkscape:connector-curvature="0"
               style="fill:#000000" /></g></g><g
           id="g312"><g
             id="g306"><path
               d="m 16.5,14.223 c -1.739,0 -3.154,-1.415 -3.154,-3.154 0,-1.739 1.415,-3.154 3.154,-3.154 1.739,0 3.154,1.415 3.154,3.154 0,1.739 -1.415,3.154 -3.154,3.154 z m 0,-5.309 c -1.188,0 -2.154,0.967 -2.154,2.154 0,1.187 0.967,2.154 2.154,2.154 1.187,0 2.154,-0.967 2.154,-2.154 0,-1.187 -0.966,-2.154 -2.154,-2.154 z"
               id="path304"
               inkscape:connector-curvature="0"
               style="fill:#000000" /></g><g
             id="g310"><path
               d="M 23.494,20.794 H 9.506 L 9.5,20.3 c 0,-0.04 -0.004,-4.047 3.923,-5.224 l 0.242,-0.073 2.835,2.138 2.835,-2.138 0.242,0.073 C 23.504,16.253 23.5,20.26 23.5,20.3 Z m -12.955,-1 H 22.461 C 22.335,18.868 21.799,16.909 19.526,16.11 L 16.5,18.393 13.474,16.111 c -2.273,0.798 -2.809,2.757 -2.935,3.683 z"
               id="path308"
               inkscape:connector-curvature="0"
               style="fill:#000000" /></g></g></g></g></g><g
     display="none"
     id="g322"
     style="display:none"
     transform="translate(-3)"><rect
       x="-324.62601"
       y="-49.984001"
       display="inline"
       width="525.18402"
       height="207.33299"
       id="rect320"
       style="display:inline;fill:#000000" /></g><g
     id="g334"
     transform="translate(-3)"><rect
       x="8"
       y="24"
       width="16"
       height="1"
       id="rect324" /><rect
       x="8"
       y="27"
       width="16"
       height="1"
       id="rect326" /><circle
       cx="16"
       cy="11.568"
       r="2.654"
       id="circle328" /><path
       d="m 22.5,20.794 c 0,0 0.045,-3.656 -3.566,-4.74 L 16,18.266 13.066,16.054 C 9.455,17.137 9.5,20.794 9.5,20.794 H 16 Z"
       id="path330"
       inkscape:connector-curvature="0" /><path
       d="M 29,6 V 4 0 H 3 V 4 6 32 H 29 Z M 27,30 H 5 V 6 H 27 Z M 27,4 H 5 V 2 h 22 z"
       id="path332"
       inkscape:connector-curvature="0" /></g></svg>