<?xml version="1.0" encoding="UTF-8" standalone="no"?>
<svg
   xmlns:dc="http://purl.org/dc/elements/1.1/"
   xmlns:cc="http://creativecommons.org/ns#"
   xmlns:rdf="http://www.w3.org/1999/02/22-rdf-syntax-ns#"
   xmlns:svg="http://www.w3.org/2000/svg"
   xmlns="http://www.w3.org/2000/svg"
   xmlns:sodipodi="http://sodipodi.sourceforge.net/DTD/sodipodi-0.dtd"
   xmlns:inkscape="http://www.inkscape.org/namespaces/inkscape"
   version="1.1"
   x="0px"
   y="0px"
   viewBox="0 0 23.099024 23.249001"
   xml:space="preserve"
   id="svg4445"
   sodipodi:docname="sk-logo1.svg"
   width="23.099024"
   height="23.249001"
   inkscape:version="0.92.4 (5da689c313, 2019-01-14)"><metadata
     id="metadata4451"><rdf:RDF><cc:Work
         rdf:about=""><dc:format>image/svg+xml</dc:format><dc:type
           rdf:resource="http://purl.org/dc/dcmitype/StillImage" /><dc:title></dc:title></cc:Work></rdf:RDF></metadata><defs
     id="defs4449" /><sodipodi:namedview
     pagecolor="#ffffff"
     bordercolor="#666666"
     borderopacity="1"
     objecttolerance="10"
     gridtolerance="10"
     guidetolerance="10"
     inkscape:pageopacity="0"
     inkscape:pageshadow="2"
     inkscape:window-width="1366"
     inkscape:window-height="706"
     id="namedview4447"
     showgrid="false"
     inkscape:zoom="7.8666667"
     inkscape:cx="11.549023"
     inkscape:cy="8.624"
     inkscape:window-x="-8"
     inkscape:window-y="-8"
     inkscape:window-maximized="1"
     inkscape:current-layer="svg4445" /><g
     id="g4439"
     transform="translate(-0.45097684,-0.375)"><path
       d="m 17.59,3.356 c -1.641,0 -2.977,1.335 -2.977,2.977 0,1.642 1.336,2.977 2.977,2.977 1.642,0 2.978,-1.335 2.978,-2.977 0,-1.642 -1.336,-2.977 -2.978,-2.977 z"
       id="path4433"
       inkscape:connector-curvature="0" /><path
       d="m 17.813,12.403 -0.548,0.863 c -0.105,0.165 -0.286,0.26 -0.475,0.26 -0.058,0 -0.117,-0.009 -0.175,-0.027 l -2.475,-0.81 c -0.245,-0.08 -0.404,-0.316 -0.387,-0.573 l 0.068,-1.02 c -0.126,-0.099 -0.249,-0.204 -0.366,-0.313 l -0.996,0.222 C 12.207,11.06 11.951,10.939 11.835,10.709 L 10.658,8.386 C 10.542,8.157 10.595,7.878 10.789,7.709 L 11.557,7.036 C 11.538,6.878 11.526,6.716 11.521,6.555 L 10.659,6.008 C 10.442,5.871 10.346,5.602 10.426,5.359 l 0.81,-2.475 c 0.08,-0.245 0.299,-0.411 0.573,-0.387 l 1.018,0.068 C 12.928,2.439 13.032,2.317 13.142,2.198 L 12.967,1.415 C 12.114,1.172 11.209,1.038 10.316,1.038 c -3.781,0 -7.211,2.266 -8.535,5.64 -0.36,0.935 -0.445,1.943 -0.243,2.91 0.074,0.38 0.163,0.609 0.172,0.632 0.734,1.315 -0.527,3.592 -0.674,3.847 -0.646,0.896 -0.584,1.187 -0.583,1.189 -0.001,-0.012 0.061,0.003 0.101,0.005 1.008,0.17 1.357,1.12 1.432,1.893 0.476,0.134 0.778,0.382 0.901,0.744 0.158,0.465 -0.064,0.922 -0.286,1.232 0.491,0.915 0.245,1.873 0.118,2.24 0.214,0.186 1.386,0.252 2.446,0.108 0.804,-0.221 1.604,-0.129 2.308,0.292 0.775,0.463 1.264,1.236 1.551,1.854 1.951,-1.807 5.982,-3.167 7.433,-3.617 -0.126,-0.735 -0.052,-1.607 0.225,-2.641 0.433,-1.521 1.162,-2.795 1.193,-2.848 0.361,-0.521 0.641,-1.065 0.877,-1.63 l -0.457,-0.523 c -0.16,0.02 -0.321,0.032 -0.482,0.038 z"
       id="path4435"
       inkscape:connector-curvature="0" /><path
       d="M 22.537,6.413 C 22.542,6.106 22.519,5.801 22.468,5.503 22.434,5.31 22.504,5.113 22.652,4.984 L 23.32,4.399 22.538,2.855 21.671,3.048 C 21.481,3.09 21.281,3.03 21.145,2.891 20.932,2.671 20.699,2.471 20.451,2.298 20.291,2.185 20.2,1.996 20.214,1.8 L 20.273,0.913 18.63,0.375 18.153,1.124 C 18.049,1.29 17.867,1.388 17.669,1.386 17.359,1.388 17.053,1.405 16.757,1.455 16.559,1.487 16.367,1.417 16.238,1.27 l -0.584,-0.668 -1.543,0.782 0.193,0.867 c 0.043,0.191 -0.017,0.39 -0.158,0.526 -0.217,0.21 -0.417,0.444 -0.594,0.693 -0.113,0.162 -0.303,0.251 -0.497,0.237 L 12.17,3.65 11.632,5.293 12.382,5.77 c 0.165,0.104 0.264,0.288 0.261,0.484 -0.005,0.31 0.018,0.616 0.069,0.911 0.034,0.193 -0.036,0.39 -0.184,0.519 L 11.86,8.269 12.642,9.813 13.508,9.62 c 0.192,-0.042 0.391,0.018 0.526,0.157 0.212,0.219 0.445,0.419 0.695,0.595 0.16,0.113 0.25,0.301 0.237,0.497 l -0.059,0.888 1.643,0.538 0.477,-0.752 c 0.105,-0.165 0.295,-0.244 0.484,-0.26 0.318,0.002 0.616,-0.019 0.912,-0.069 0.193,-0.034 0.39,0.037 0.519,0.185 l 0.585,0.668 1.543,-0.782 -0.193,-0.866 c -0.043,-0.191 0.017,-0.391 0.158,-0.527 0.217,-0.21 0.417,-0.444 0.594,-0.693 0.113,-0.162 0.3,-0.255 0.497,-0.237 L 23.012,9.021 23.55,7.378 22.8,6.901 C 22.633,6.793 22.534,6.608 22.537,6.413 Z m -4.947,4.023 c -2.262,0 -4.102,-1.841 -4.102,-4.102 0,-2.261 1.84,-4.102 4.102,-4.102 2.262,0 4.103,1.841 4.103,4.102 0,2.261 -1.841,4.102 -4.103,4.102 z"
       id="path4437"
       inkscape:connector-curvature="0" /></g></svg>