<?xml version="1.0" encoding="UTF-8" standalone="no"?>
<svg
   xmlns:dc="http://purl.org/dc/elements/1.1/"
   xmlns:cc="http://creativecommons.org/ns#"
   xmlns:rdf="http://www.w3.org/1999/02/22-rdf-syntax-ns#"
   xmlns:svg="http://www.w3.org/2000/svg"
   xmlns="http://www.w3.org/2000/svg"
   xmlns:sodipodi="http://sodipodi.sourceforge.net/DTD/sodipodi-0.dtd"
   xmlns:inkscape="http://www.inkscape.org/namespaces/inkscape"
   version="1.1"
   x="0px"
   y="0px"
   viewBox="0 0 84.291 84.891998"
   enable-background="new 0 0 95 95"
   xml:space="preserve"
   id="svg4345"
   sodipodi:docname="so-logo1.svg"
   width="84.291"
   height="84.891998"
   inkscape:version="0.92.4 (5da689c313, 2019-01-14)"><metadata
     id="metadata4351"><rdf:RDF><cc:Work
         rdf:about=""><dc:format>image/svg+xml</dc:format><dc:type
           rdf:resource="http://purl.org/dc/dcmitype/StillImage" /><dc:title></dc:title></cc:Work></rdf:RDF></metadata><defs
     id="defs4349" /><sodipodi:namedview
     pagecolor="#ffffff"
     bordercolor="#666666"
     borderopacity="1"
     objecttolerance="10"
     gridtolerance="10"
     guidetolerance="10"
     inkscape:pageopacity="0"
     inkscape:pageshadow="2"
     inkscape:window-width="1366"
     inkscape:window-height="706"
     id="namedview4347"
     showgrid="false"
     inkscape:zoom="1.9873684"
     inkscape:cx="42.146"
     inkscape:cy="30.571002"
     inkscape:window-x="-8"
     inkscape:window-y="-8"
     inkscape:window-maximized="1"
     inkscape:current-layer="svg4345" /><g
     id="g4339"
     transform="translate(-5.354,-5.054)"><path
       d="m 31.028,52.945 c -0.188,0 -0.343,0.153 -0.343,0.341 v 24.708 c 0,0.188 0.154,0.342 0.343,0.342 h 32.944 c 0.188,0 0.342,-0.154 0.342,-0.342 V 53.286 c 0,-0.188 -0.154,-0.341 -0.342,-0.341 z M 47.5,56.472 c 2.969,0 5.372,2.406 5.372,5.373 0,2.968 -2.403,5.374 -5.372,5.374 -2.967,0 -5.372,-2.406 -5.372,-5.374 0,-2.968 2.405,-5.373 5.372,-5.373 z m 5.858,18.272 H 41.642 c -0.803,0 -1.456,-0.653 -1.456,-1.457 0,0 0.319,-3.003 0.363,-4.007 0.037,-0.803 0.652,-1.456 1.458,-1.456 2.746,0 8.24,0 10.988,0 0.804,0 1.419,0.653 1.456,1.456 0.046,1.004 0.363,4.007 0.363,4.007 0,0.804 -0.651,1.457 -1.456,1.457 z"
       id="path4321"
       inkscape:connector-curvature="0" /><path
       d="m 77.379,19.295 c -6.765,0 -12.268,5.502 -12.268,12.267 0,2.989 1.099,5.875 3.094,8.125 0.009,0.012 0.022,0.022 0.033,0.034 l -8.624,8.625 H 49.097 V 29.469 c 0.039,-0.004 0.07,-0.006 0.11,-0.012 6.02,-0.841 10.56,-6.058 10.56,-12.136 0,-6.764 -5.503,-12.267 -12.267,-12.267 -6.764,0 -12.267,5.503 -12.267,12.267 0,6.078 4.54,11.295 10.562,12.136 0.038,0.006 0.071,0.008 0.109,0.012 V 48.345 H 35.387 L 26.762,39.72 c 0.011,-0.012 0.024,-0.022 0.035,-0.034 1.993,-2.25 3.092,-5.136 3.092,-8.125 0,-6.765 -5.503,-12.267 -12.268,-12.267 -6.764,0 -12.267,5.502 -12.267,12.267 0,6.764 5.503,12.267 12.267,12.267 2.325,0 4.599,-0.665 6.572,-1.919 0.049,-0.031 0.092,-0.072 0.141,-0.104 l 6.554,6.554 c -2.659,0.076 -4.801,2.25 -4.801,4.926 v 24.708 c 0,2.725 2.217,4.942 4.941,4.942 h 32.944 c 2.726,0 4.942,-2.217 4.942,-4.942 V 53.286 c 0,-2.676 -2.144,-4.85 -4.801,-4.926 l 6.554,-6.554 c 0.047,0.032 0.092,0.073 0.141,0.104 1.972,1.255 4.245,1.919 6.57,1.919 6.764,0 12.267,-5.502 12.267,-12.267 C 89.646,24.798 84.143,19.295 77.379,19.295 Z M 36.83,17.321 c 0,-5.884 4.786,-10.672 10.67,-10.672 5.884,0 10.672,4.788 10.672,10.672 0,5.286 -3.95,9.824 -9.187,10.555 -1.135,0.158 -1.832,0.158 -2.971,0 C 40.778,27.145 36.83,22.607 36.83,17.321 Z M 17.621,42.234 c -5.884,0 -10.672,-4.788 -10.672,-10.671 0,-5.884 4.788,-10.672 10.672,-10.672 5.885,0 10.672,4.788 10.672,10.672 0,2.598 -0.955,5.108 -2.689,7.066 -0.666,0.75 -1.429,1.401 -2.267,1.935 -1.719,1.091 -3.695,1.67 -5.716,1.67 z m 48.478,11.052 v 24.708 c 0,1.172 -0.954,2.125 -2.126,2.125 H 31.028 c -1.171,0 -2.125,-0.954 -2.125,-2.125 V 53.286 c 0,-1.172 0.954,-2.125 2.125,-2.125 h 32.944 c 1.173,10e-4 2.127,0.953 2.127,2.125 z m 11.28,-11.052 c -2.021,0 -3.997,-0.579 -5.714,-1.67 -0.84,-0.534 -1.603,-1.185 -2.267,-1.935 -1.736,-1.958 -2.691,-4.468 -2.691,-7.066 0,-5.884 4.787,-10.672 10.672,-10.672 5.884,0 10.672,4.788 10.672,10.672 0,5.883 -4.788,10.671 -10.672,10.671 z"
       id="path4323"
       inkscape:connector-curvature="0" /><circle
       cx="17.621"
       cy="29.039"
       r="3.6010001"
       id="circle4325" /><path
       d="m 21.303,33.047 c -1.841,0 -5.522,0 -7.365,0 -0.539,0 -0.951,0.438 -0.976,0.978 -0.031,0.673 -0.243,2.684 -0.243,2.684 0,0.539 0.436,0.978 0.975,0.978 h 7.854 c 0.541,0 0.979,-0.438 0.979,-0.978 0,0 -0.215,-2.011 -0.244,-2.684 -0.026,-0.539 -0.439,-0.978 -0.98,-0.978 z"
       id="path4327"
       inkscape:connector-curvature="0" /><circle
       cx="77.469002"
       cy="29.039"
       r="3.6010001"
       id="circle4329" /><path
       d="m 81.15,33.047 c -1.841,0 -5.522,0 -7.365,0 -0.539,0 -0.952,0.438 -0.978,0.978 -0.029,0.673 -0.244,2.684 -0.244,2.684 0,0.539 0.438,0.978 0.978,0.978 h 7.855 c 0.537,0 0.975,-0.438 0.975,-0.978 0,0 -0.212,-2.011 -0.243,-2.684 -0.026,-0.539 -0.439,-0.978 -0.978,-0.978 z"
       id="path4331"
       inkscape:connector-curvature="0" /><path
       d="m 47.502,18.399 c 1.987,0 3.6,-1.612 3.6,-3.602 0,-1.989 -1.612,-3.601 -3.6,-3.601 -1.991,0 -3.604,1.612 -3.604,3.601 0,1.99 1.613,3.602 3.604,3.602 z"
       id="path4333"
       inkscape:connector-curvature="0" /><path
       d="m 52.405,22.469 c 0,0 -0.215,-2.013 -0.244,-2.687 -0.025,-0.538 -0.438,-0.977 -0.978,-0.977 -1.843,0 -5.524,0 -7.365,0 -0.539,0 -0.954,0.438 -0.978,0.977 -0.029,0.674 -0.244,2.687 -0.244,2.687 0,0.539 0.437,0.976 0.978,0.976 h 7.854 c 0.539,0 0.977,-0.437 0.977,-0.976 z"
       id="path4335"
       inkscape:connector-curvature="0" /><rect
       x="24.76"
       y="84.538002"
       width="45.481998"
       height="5.408"
       id="rect4337" /></g></svg>