<?xml version="1.0" encoding="UTF-8" standalone="no"?>
<svg
   xmlns:dc="http://purl.org/dc/elements/1.1/"
   xmlns:cc="http://creativecommons.org/ns#"
   xmlns:rdf="http://www.w3.org/1999/02/22-rdf-syntax-ns#"
   xmlns:svg="http://www.w3.org/2000/svg"
   xmlns="http://www.w3.org/2000/svg"
   xmlns:sodipodi="http://sodipodi.sourceforge.net/DTD/sodipodi-0.dtd"
   xmlns:inkscape="http://www.inkscape.org/namespaces/inkscape"
   version="1.1"
   x="0px"
   y="0px"
   viewBox="0 0 26.364 96.127998"
   enable-background="new 0 0 100 100"
   xml:space="preserve"
   id="svg162"
   sodipodi:docname="a-logo1.svg"
   width="26.364"
   height="96.127998"
   inkscape:version="0.92.4 (5da689c313, 2019-01-14)"><metadata
     id="metadata168"><rdf:RDF><cc:Work
         rdf:about=""><dc:format>image/svg+xml</dc:format><dc:type
           rdf:resource="http://purl.org/dc/dcmitype/StillImage" /><dc:title></dc:title></cc:Work></rdf:RDF></metadata><defs
     id="defs166" /><sodipodi:namedview
     pagecolor="#ffffff"
     bordercolor="#666666"
     borderopacity="1"
     objecttolerance="10"
     gridtolerance="10"
     guidetolerance="10"
     inkscape:pageopacity="0"
     inkscape:pageshadow="2"
     inkscape:window-width="1366"
     inkscape:window-height="706"
     id="namedview164"
     showgrid="false"
     inkscape:zoom="4.296"
     inkscape:cx="23.377531"
     inkscape:cy="41.5491"
     inkscape:window-x="-8"
     inkscape:window-y="-8"
     inkscape:window-maximized="1"
     inkscape:current-layer="svg162" /><polygon
     transform="translate(-37.334,-2.293)"
     style="fill:#000000"
     points="61.142,31.085 61.141,31.083 61.141,31.091 "
     id="polygon90" /><path
     inkscape:connector-curvature="0"
     style="fill:#000000"
     d="m 4.62,58.109 0.504,0.479 c 0,10e-4 0,0.002 0.001,0.003 0.001,0 0.002,0 0.003,10e-4 l 0.157,0.157 H 5.364 V 58.384 L 5.281,58.155 4.77,57.566 C 4.765,57.56 4.768,57.552 4.764,57.546 4.761,57.541 4.753,57.543 4.75,57.538 l -0.428,-0.72 c 0,-10e-4 0,-10e-4 0,-10e-4 0,-10e-4 -0.001,0 -0.001,-10e-4 L 3.947,56.174 C 3.945,56.17 3.947,56.164 3.946,56.16 3.943,56.154 3.937,56.151 3.934,56.145 L 3.64,55.37 c -0.037,-0.099 0.012,-0.208 0.11,-0.245 0.1,-0.038 0.208,0.012 0.245,0.11 l 0.289,0.761 0.366,0.629 0.418,0.704 0.522,0.603 c 0.009,0.01 0.005,0.022 0.011,0.033 0.006,0.011 0.02,0.014 0.024,0.026 l 0.102,0.281 0.007,0.015 0.181,0.031 H 5.95 V 58.013 L 5.806,57.675 c -0.001,-0.002 0,-0.004 0,-0.006 C 5.805,57.667 5.803,57.666 5.802,57.663 L 5.298,56.231 4.978,55.483 c -10e-4,-0.002 0.001,-0.004 0,-0.007 C 4.977,55.473 4.974,55.472 4.973,55.469 L 4.84,55.068 C 4.837,55.06 4.843,55.052 4.841,55.044 4.839,55.036 4.831,55.03 4.83,55.021 l -0.027,-0.4 c 0,-0.006 0.006,-0.011 0.006,-0.017 0,-0.006 -0.005,-0.01 -0.005,-0.016 l 0.08,-0.748 c 0,-0.003 0.004,-0.005 0.004,-0.009 0,-0.004 -0.002,-0.006 -0.002,-0.01 L 5.02,53.179 c 0.005,-0.026 0.027,-0.041 0.041,-0.062 0.01,-0.015 0.01,-0.033 0.023,-0.045 0.002,-0.002 0.006,-0.001 0.008,-0.002 0.021,-0.018 0.047,-0.018 0.074,-0.024 0.023,-0.005 0.043,-0.016 0.068,-0.012 0.004,10e-4 0.007,-0.003 0.011,-0.003 0.022,0.005 0.034,0.025 0.053,0.036 0.018,0.011 0.04,0.012 0.054,0.028 l 0.267,0.32 c 0.008,0.009 0.004,0.021 0.01,0.031 0.006,0.01 0.019,0.014 0.023,0.025 l 0.102,0.277 0.915,1.518 0.454,0.501 0.163,0.032 0.248,-0.066 c 0,0 0,-10e-4 0.001,-10e-4 L 7.689,55.689 V 55.541 55.288 L 7.578,55.046 7.353,54.694 7.175,54.489 C 7.17,54.483 7.173,54.475 7.168,54.469 7.165,54.464 7.158,54.466 7.155,54.461 L 6.834,53.927 C 6.832,53.924 6.835,53.919 6.833,53.914 6.83,53.909 6.824,53.906 6.822,53.9 L 6.349,52.744 5.583,51.584 c -0.002,-0.003 0,-0.007 -0.002,-0.01 C 5.58,51.572 5.577,51.572 5.575,51.57 L 5.099,50.705 4.448,51.251 C 4.444,51.254 4.438,51.253 4.433,51.256 4.43,51.259 4.43,51.264 4.426,51.266 L 3.57,51.807 c -0.015,0.01 -0.032,0.009 -0.049,0.014 -0.007,0.002 -0.01,0.011 -0.019,0.012 L 2.461,52.019 C 2.45,52.022 2.438,52.023 2.427,52.023 H 1.919 c -0.007,0 -0.016,-0.002 -0.023,-0.003 v 0.306 l 0.26,1.455 0.364,0.835 c 0,10e-4 0,10e-4 0,10e-4 l 0.294,0.668 c 0.003,0.006 -10e-4,0.014 0,0.021 0.002,0.007 0.011,0.01 0.012,0.017 l 0.155,0.752 0.326,0.678 0.644,0.721 0.663,0.635 z"
     id="path92" /><path
     inkscape:connector-curvature="0"
     style="fill:#000000"
     d="m 11.472,92.704998 c -10e-4,-0.003 0.001,-0.006 0,-0.008 -10e-4,-0.004 -0.005,-0.005 -0.006,-0.009 l -0.133,-0.428 c -0.003,-0.011 0.004,-0.019 0.002,-0.028 -0.001,-0.011 -0.011,-0.018 -0.011,-0.028 V 91.78 l -0.335,-0.973 -0.315,-0.658 c -0.002,-0.004 0.001,-0.009 0,-0.014 -0.003,-0.006 -0.009,-0.009 -0.011,-0.015 L 10.56,89.77 10.452,89.744 C 10.44,89.74 10.434,89.728 10.424,89.723 10.408,89.716 10.391,89.717 10.377,89.706 L 10.115,89.492 9.777,89.401 H 9.481 v 0 l -0.765,0.024 -0.532,0.187 -0.42,0.567 C 7.761,90.183 7.755,90.181 7.752,90.185 7.749,90.19 7.75,90.196 7.746,90.201 L 7.453,90.495 C 7.418,90.529 7.371,90.551 7.318,90.551 H 7.051 C 7.041,90.551 7.03,90.55 7.02,90.548 L 6.859,90.522 C 6.838,90.518 6.827,90.501 6.81,90.491 6.787,90.479 6.766,90.473 6.749,90.454 6.733,90.434 6.73,90.413 6.723,90.39 6.717,90.37 6.701,90.357 6.701,90.335 v -1.099 l -0.12,0.006 c -0.003,0 -0.006,10e-4 -0.009,10e-4 v 0 c -0.007,0 -0.013,-10e-4 -0.019,-10e-4 L 6.295,89.216 c 0,0.001 0,0.001 0,0.002 0.001,0.014 0.012,0.022 0.011,0.036 L 6.28,89.576 c 0,0.001 -0.002,0.002 -0.002,0.003 0,0.001 0.001,0.002 0.001,0.003 l -0.051,0.44 0.053,2.895998 0.03,0.238 c 0.011,0.004 0.021,0.002 0.032,0.007 0.022,0.013 0.032,0.037 0.048,0.058 0.014,0.017 0.034,0.026 0.041,0.048 l 0.012,0.036 0.102,0.102 c 0.003,0.004 0.002,0.011 0.005,0.015 0.004,0.004 0.01,0.004 0.013,0.008 l 0.294,0.399 0.559,0.745 0.618,0.746 0.337,0.201 0.458,0.048 c 0,0 0,0 0,0 l 1.892,0.134 h 0.142 l 0.264,-0.111 0.358,-0.255 c 10e-4,0 0.002,0 0.003,0 10e-4,-10e-4 10e-4,-0.002 10e-4,-0.003 l 0.119,-0.079 0.111,-0.223 c 0.002,-0.004 0.007,-0.005 0.009,-0.008 0.003,-0.005 0,-0.009 0.003,-0.013 l 0.289,-0.432 v -0.35 l -0.099,-0.445 z"
     id="path94" /><path
     inkscape:connector-curvature="0"
     style="fill:#000000"
     d="M 7.913,89.34 C 7.925,89.323 7.945,89.322 7.96,89.311 7.976,89.3 7.983,89.281 8.002,89.274 l 0.614,-0.216 c 0.01,-0.004 0.02,0.003 0.03,0.002 0.01,-0.002 0.016,-0.012 0.026,-0.012 l 0.802,-0.026 c 10e-4,0 10e-4,10e-4 0.003,10e-4 10e-4,0 10e-4,-10e-4 0.003,-10e-4 h 0.321 c 0.009,0 0.015,0.009 0.024,0.01 0.009,0.001 0.016,-0.006 0.025,-0.004 l 0.401,0.107 c 0.014,0.004 0.021,0.02 0.033,0.025 0.012,0.007 0.027,0.002 0.038,0.012 l 0.16,0.131 -0.014,-0.119 -0.076,-0.45 -0.124,0.018 -0.179,0.112 c -0.01,0.007 -0.021,0.005 -0.03,0.01 -0.007,0.002 -0.009,0.01 -0.015,0.012 l -0.267,0.082 c -0.019,0.005 -0.038,0.008 -0.056,0.008 -0.003,0 -0.006,0 -0.01,0 L 8.677,88.922 H 8.248 l -0.59,0.154 -0.486,0.128 -0.093,0.046 v 0.922 h 0.159 l 0.227,-0.228 z"
     id="path96" /><path
     inkscape:connector-curvature="0"
     style="fill:#000000"
     d="M 2.414,51.641 3.401,51.465 4.213,50.957 4.916,50.368 4.532,49.621 C 4.526,49.609 4.532,49.598 4.529,49.586 4.525,49.573 4.513,49.565 4.511,49.551 L 4.446,48.843 H 2.199 l -0.25,0.104 -0.161,0.161 -0.316,0.341 c -0.005,0.006 -0.013,0.004 -0.018,0.008 -0.006,0.006 -0.005,0.014 -0.012,0.018 l -0.56,0.401 C 0.874,49.882 0.864,49.88 0.856,49.885 0.85,49.888 0.848,49.896 0.841,49.899 l -0.282,0.11 0.145,0.081 c 0.005,0.003 0.005,0.009 0.009,0.012 0.005,0.003 0.011,0.001 0.015,0.004 l 0.481,0.373 c 0.008,0.006 0.007,0.018 0.014,0.025 0.007,0.007 0.018,0.007 0.024,0.015 l 0.134,0.188 c 0.005,0.007 10e-4,0.015 0.005,0.021 0.003,0.006 0.013,0.008 0.016,0.016 l 0.133,0.319 c 0.002,0.006 -10e-4,0.012 0,0.018 0.002,0.005 0.009,0.008 0.01,0.014 l 0.108,0.475 0.098,0.025 v 0 l 0.191,0.046 z"
     id="path98" /><path
     inkscape:connector-curvature="0"
     style="fill:#000000"
     d="m 24.68,94.196998 c -0.008,0.005 -0.009,0.015 -0.017,0.02 l -0.32,0.161 c -0.003,10e-4 -0.007,10e-4 -0.01,0.002 -10e-4,0.001 -0.002,0.004 -0.004,0.004 l -0.721,0.294 c -0.021,0.009 -0.042,0.012 -0.062,0.013 -10e-4,0 -0.002,0.001 -0.003,0.001 h -0.004 c -0.002,0 -0.002,0.001 -0.002,0.001 h -10e-4 l -0.849,0.026 c -0.002,0 -0.004,0 -0.006,0 -0.008,0 -0.016,0 -0.024,-0.001 l -0.854,-0.108 c -0.001,0 -0.001,0 -0.002,0 -0.005,-0.001 -0.008,-0.001 -0.013,-0.002 l -1.71,-0.347 c -0.003,-0.001 -0.004,-0.005 -0.007,-0.005 -0.009,-0.002 -0.019,-0.002 -0.027,-0.006 l -0.713,-0.291 -0.375,-0.134 c -0.01,-0.004 -0.013,-0.015 -0.021,-0.021 -0.012,-0.006 -0.025,-0.004 -0.036,-0.013 l -0.314,-0.263 -0.559,-0.429 0.198,0.351 0.459,0.241 c 0.003,0.002 0.004,0.007 0.007,0.009 0.004,0.003 0.007,0 0.011,0.003 l 0.97,0.655 1.021,0.394 c 0.002,0 0.003,0.003 0.004,0.003 0.002,0.001 0.004,0 0.006,0 l 0.52,0.234 0.633,0.151 1.524,0.104 1.167,-0.389 c 0.011,-0.004 0.021,0.003 0.031,0.002 0.011,-0.002 0.018,-0.012 0.029,-0.012 h 0.069 l 0.062,-0.126 0.024,-0.486 v -0.1 l -0.055,0.052 c -0.007,0.008 -0.019,0.006 -0.026,0.012 z"
     id="path100" /><path
     inkscape:connector-curvature="0"
     style="fill:#000000"
     d="m 18.817,93.230998 c 0.001,0.001 0.003,0 0.004,0.001 l 0.295,0.246 0.343,0.122 c 0.002,0 0.002,0.003 0.004,0.003 0.002,0.001 0.003,0 0.004,0 l 0.705,0.289 1.685,0.342 0.834,0.104 0.806,-0.025 0.682,-0.278 0.29,-0.146 0.232,-0.214 -0.249,-0.345 c -0.004,-0.006 -0.001,-0.014 -0.004,-0.02 -0.006,-0.009 -0.016,-0.014 -0.02,-0.023 l -0.125,-0.326 -0.088,-0.132 -0.286,-0.309 -0.796,-0.386 c -10e-4,0 -10e-4,-0.001 -10e-4,-0.001 -0.001,0 -0.001,0 -0.001,0 L 22.651,91.893 c -0.009,-0.005 -0.01,-0.015 -0.017,-0.02 -0.009,-0.005 -0.02,-0.003 -0.027,-0.011 l -0.321,-0.294 c -0.001,-0.001 0,-0.003 -0.002,-0.004 -10e-4,-10e-4 -0.003,-10e-4 -0.004,-0.002 l -0.347,-0.348 c -0.008,-0.008 -0.006,-0.019 -0.012,-0.028 -0.004,-0.006 -0.014,-0.004 -0.018,-0.01 l -0.177,-0.302 -0.63,-0.707 -1.164,-0.517 c -0.005,-0.002 -0.005,-0.008 -0.01,-0.01 -0.006,-0.003 -0.013,-0.002 -0.019,-0.006 l -0.401,-0.268 c -0.015,-0.01 -0.017,-0.029 -0.028,-0.042 -0.008,-0.009 -0.021,-0.006 -0.027,-0.017 L 19.233,88.96 c -0.002,-0.004 0,-0.009 -0.002,-0.013 -0.003,-0.006 -0.01,-0.009 -0.012,-0.015 l -0.161,-0.39 h -0.172 -0.417 l -0.335,0.251 -0.152,0.37 v 0.177 c 0,0.019 -0.015,0.03 -0.02,0.048 -0.005,0.017 0.002,0.035 -0.008,0.051 l -0.081,0.134 c -0.006,0.01 -0.02,0.007 -0.027,0.016 -0.012,0.013 -0.013,0.032 -0.028,0.043 l -0.749,0.509 -0.266,0.184 c -0.016,0.012 -0.035,0.012 -0.053,0.017 -0.009,0.003 -0.013,0.013 -0.022,0.015 l -0.16,0.028 c -0.011,0.002 -0.021,0.003 -0.032,0.003 -0.042,0 -0.085,-0.015 -0.12,-0.043 l -0.002,-0.001 c 0,-10e-4 0,-10e-4 0,-10e-4 l -0.292,-0.236 c -0.002,-0.002 -0.002,-0.004 -0.003,-0.006 -0.002,-0.001 -0.004,0 -0.006,-0.002 L 15.452,89.49 14.684,88.909 c -10e-4,-0.001 0,-0.002 -10e-4,-0.003 -0.007,-0.006 -0.009,-0.013 -0.015,-0.019 -0.004,-0.003 -0.01,-0.001 -0.014,-0.006 l -0.855,-0.991 -0.155,0.521 c 0,0.001 -10e-4,0.001 -10e-4,0.003 0,0 10e-4,0.002 0,0.003 l -0.344,1.032 -0.097,0.432 0.035,0.173 0.066,0.067 c 10e-4,0 0,0.002 10e-4,0.003 10e-4,0.001 0.002,0 0.003,0.001 l 0.27,0.293 0.294,0.136 0.306,0.076 c 0.004,0.001 0.006,0.006 0.01,0.007 0.003,0.002 0.007,-0.001 0.011,0 l 0.855,0.321 c 0.003,0.001 0.004,0.005 0.007,0.007 0.004,0.002 0.008,-0.001 0.011,10e-4 l 0.847,0.424 0.692,0.293 c 0.004,10e-4 0.005,0.007 0.009,0.009 0.004,0.002 0.009,-10e-4 0.013,0.002 l 0.774,0.451998 c 0.005,0.003 0.005,0.008 0.008,0.011 0.004,0.002 0.009,0 0.013,0.003 l 1.389,1.069 c 0,-0.001 0,10e-4 0.001,0.002 z"
     id="path102" /><path
     inkscape:connector-curvature="0"
     style="fill:#000000"
     d="m 15.767,91.738 c -0.002,-0.001 -0.002,-0.003 -0.003,-0.004 -0.002,0 -0.005,0 -0.008,-0.002 L 14.91,91.309 14.078,90.997 13.765,90.919 C 13.76,90.918 13.76,90.914 13.755,90.912 13.747,90.91 13.738,90.91 13.731,90.906 l -0.348,-0.161 c -0.012,-0.006 -0.015,-0.021 -0.026,-0.028 -0.01,-0.008 -0.024,-0.005 -0.033,-0.015 l -0.239,-0.259 -0.041,0.205 0.055,0.2 0.126,0.126 0.285,0.119 c 0.003,10e-4 0.003,0.005 0.005,0.006 0.003,10e-4 0.006,-0.001 0.008,0 l 1.023,0.525 1.215,0.361 h 0.453 c 0.016,0 0.025,0.013 0.039,0.016 0.015,0.004 0.029,-0.004 0.043,0.003 l 0.508,0.240998 0.085,0.038 -0.44,-0.257998 z"
     id="path104" /><path
     inkscape:connector-curvature="0"
     style="fill:#000000"
     d="m 8.236,15.744 c 0.006,0.004 0.005,0.012 0.01,0.017 0.005,0.004 0.013,0.003 0.018,0.009 l 1.354,1.568 0.267,0.242 0.427,0.202 c 0.002,0.001 0.002,0.005 0.005,0.006 0.003,0.002 0.006,0 0.009,0.001 l 0.695,0.401 1.127,0.644 0.021,-0.047 -0.064,-0.299 -0.052,-0.137 -0.21,-0.126 c -0.016,-0.01 -0.019,-0.029 -0.031,-0.042 -0.008,-0.008 -0.022,-0.006 -0.029,-0.016 -0.006,-0.01 -0.002,-0.022 -0.006,-0.032 -0.01,-0.023 -0.013,-0.043 -0.014,-0.069 0,-0.025 10e-4,-0.045 0.01,-0.069 0.004,-0.01 -10e-4,-0.023 0.005,-0.033 0.008,-0.013 0.023,-0.015 0.034,-0.024 0.01,-0.012 0.011,-0.027 0.024,-0.036 l 0.532,-0.354 0.489,-0.685 0.264,-1.488 -0.101,-0.063 v 0 l -0.267,-0.161 c -0.01,-0.006 -0.011,-0.019 -0.019,-0.026 -0.008,-0.006 -0.02,-0.004 -0.026,-0.012 L 12.521,14.902 C 12.519,14.899 12.52,14.896 12.518,14.893 12.516,14.89 12.513,14.892 12.511,14.889 l -0.375,-0.508 c -0.006,-0.009 -0.003,-0.02 -0.007,-0.03 -0.012,-0.022 -0.014,-0.042 -0.017,-0.068 -0.002,-0.025 -0.003,-0.046 0.005,-0.07 0.003,-0.01 -0.002,-0.02 0.002,-0.03 l 0.188,-0.375 c 0.003,-0.007 0.011,-0.007 0.015,-0.013 0.004,-0.006 0.001,-0.014 0.006,-0.02 l 0.286,-0.362 0.246,-0.442 0.096,-0.408 v -0.055 h -0.07 l -0.27,0.024 -0.601,0.15 -0.828,0.465 -0.771,0.51 -0.273,0.374 c -0.002,0.003 -0.007,0.002 -0.009,0.005 -0.003,0.004 -0.001,0.008 -0.004,0.012 L 9.836,14.369 C 9.824,14.382 9.806,14.38 9.792,14.389 9.775,14.4 9.767,14.418 9.748,14.424 l -0.374,0.107 c -0.009,0.002 -0.017,0.002 -0.025,0.003 -10e-4,0 -0.002,0.002 -0.003,0.002 l -0.213,0.027 c 0,0 0,0 -10e-4,0 0,0 0,0 0,0 l -0.389,0.045 -0.3,0.301 C 8.43,14.921 8.412,14.92 8.397,14.928 8.383,14.937 8.376,14.953 8.358,14.958 l -0.295,0.08 C 8.046,15.042 8.03,15.045 8.013,15.045 H 7.361 l 0.161,0.145 z"
     id="path106" /><path
     inkscape:connector-curvature="0"
     style="fill:#000000"
     d="m 10.473,18.786 v 0.048 c 0,0.004 -0.004,0.006 -0.004,0.01 0,0.004 0.003,0.007 0.003,0.012 l -0.053,0.455 c 0,0.005 -0.005,0.008 -0.006,0.013 0,0.004 0.002,0.007 10e-4,0.012 l -0.046,0.184 0.025,0.455 c 0,0.002 -0.002,0.003 -0.002,0.005 0,0.002 0.002,0.003 0.002,0.005 v 1.532 L 10.441,20.8 c 0,-0.002 0.002,-0.002 0.002,-0.004 0,-0.002 -0.002,-0.003 -10e-4,-0.004 l 0.051,-0.468 v -1.006 c 0,-0.002 0.002,-0.003 0.002,-0.004 0,-0.002 -10e-4,-0.003 -10e-4,-0.005 l 0.023,-0.477 z"
     id="path108" /><path
     inkscape:connector-curvature="0"
     style="fill:#000000"
     d="m 12.923,13.617 c -0.003,0.005 -10e-4,0.013 -0.005,0.019 l -0.284,0.359 -0.125,0.252 0.302,0.409 0.162,0.185 0.242,0.145 c 0,10e-4 0,0.002 10e-4,0.002 h 0.001 l 0.214,0.134 0.186,0.116 0.54,0.123 0.509,0.024 h 0.347 c 0.011,0 0.019,0.011 0.028,0.012 0.012,10e-4 0.021,-0.005 0.031,-0.002 l 0.241,0.08 c 0.005,0.002 0.007,0.008 0.012,0.01 0.005,0.002 0.011,-10e-4 0.015,0.001 l 0.053,0.027 c 0.021,0.011 0.027,0.033 0.042,0.049 0.017,0.018 0.04,0.026 0.049,0.05 l 0.053,0.133 c 0.005,0.013 -0.003,0.024 0,0.036 0.002,0.013 0.014,0.021 0.014,0.034 v 0.221 l 0.046,0.228 0.099,0.22 c 0,0 0,0 0,10e-4 l 0.45,0.98 0.557,0.98 c 0.002,0.003 0,0.007 0.001,0.01 0.002,0.004 0.007,0.004 0.008,0.008 l 0.479,1.092 0.479,1.007 0.07,-0.146 0.077,-1.564 c 0,-0.001 0.002,-0.002 0.002,-0.004 0,-0.002 -10e-4,-0.002 -10e-4,-0.004 l 0.054,-0.588 c 0.001,-0.009 0.01,-0.014 0.013,-0.022 0.002,-0.01 -0.004,-0.019 -0.001,-0.027 l 0.293,-0.776 c 0.002,-0.006 0.01,-0.008 0.013,-0.014 0.003,-0.005 0,-0.012 0.003,-0.018 l 0.712,-1.158 0.065,-0.176 0.021,-0.179 -0.062,-0.202 -0.145,-0.219 c -0.002,-0.003 0,-0.007 -0.002,-0.01 -0.003,-0.004 -0.008,-0.006 -0.01,-0.01 l -0.079,-0.16 c -0.004,-0.007 10e-4,-0.015 -0.002,-0.022 -0.004,-0.01 -0.014,-0.015 -0.015,-0.024 l -0.054,-0.268 c -0.002,-0.007 0.004,-0.013 0.003,-0.02 -0.001,-0.007 -0.007,-0.011 -0.007,-0.018 v -0.508 -0.507 -0.534 c 0,-0.002 0.002,-0.003 0.002,-0.005 0,-0.002 -0.002,-0.003 -0.002,-0.005 l 0.026,-0.507 c 0,-0.002 0.002,-0.003 0.003,-0.005 0,-0.002 -0.003,-0.004 -0.002,-0.007 l 0.011,-0.091 -0.112,0.08 c -0.003,0.002 -0.007,0.002 -0.01,0.003 -0.002,0.001 -0.002,0.004 -0.004,0.005 l -0.454,0.268 c -0.008,0.004 -0.017,0.003 -0.025,0.007 -0.005,0.002 -0.005,0.007 -0.011,0.009 l -0.319,0.108 c -0.021,0.007 -0.041,0.01 -0.062,0.01 -0.002,0 -0.004,0 -0.005,0 l -0.85,-0.026 h -10e-4 c -0.004,0 -0.008,0 -0.012,0 l -1.257,-0.082 c -0.001,0 -0.002,-0.001 -0.003,-0.002 C 15.52,13.143 15.51,13.143 15.499,13.14 L 14.885,12.981 C 14.877,12.979 14.874,12.97 14.867,12.967 14.853,12.962 14.84,12.963 14.827,12.955 l -0.48,-0.32 C 14.346,12.634 14.346,12.632 14.344,12.631 14.343,12.63 14.34,12.63 14.338,12.629 L 13.804,12.228 C 13.797,12.223 13.797,12.212 13.791,12.206 13.785,12.2 13.776,12.202 13.771,12.196 L 13.396,11.741 C 13.391,11.735 13.394,11.727 13.39,11.72 13.383,11.71 13.372,11.704 13.367,11.693 l -0.035,-0.084 v 0.707 0.267 c 0,0.009 -0.008,0.013 -0.009,0.021 -0.001,0.008 0.005,0.015 0.003,0.022 l -0.106,0.455 c -0.002,0.01 -0.013,0.016 -0.016,0.025 -0.003,0.007 10e-4,0.016 -0.003,0.023 l -0.267,0.481 c -0.002,0.004 -0.008,0.002 -0.011,0.007 z"
     id="path110" /><path
     inkscape:connector-curvature="0"
     style="fill:#000000"
     d="M 0.682,49.553 1.205,49.178 1.514,48.845 C 1.515,48.844 1.516,48.844 1.517,48.843 1.519,48.842 1.518,48.84 1.519,48.839 l 0.188,-0.188 c 0.01,-0.01 0.024,-0.007 0.036,-0.015 0.011,-0.007 0.014,-0.021 0.026,-0.026 L 2.09,48.477 c 0.013,-0.006 0.025,0.002 0.038,0 0.013,-0.003 0.021,-0.015 0.035,-0.015 H 4.431 V 48.2 L 4.405,47.739 4.248,46.87 C 4.247,46.865 4.251,46.86 4.251,46.855 4.25,46.85 4.245,46.847 4.245,46.841 L 4.191,45.023 C 4.19,45.015 4.197,45.011 4.198,45.004 4.199,44.996 4.192,44.991 4.194,44.984 l 0.08,-0.453 c 0.001,-0.009 0.009,-0.012 0.012,-0.02 0.002,-0.008 -0.003,-0.016 0,-0.023 L 4.463,44.085 4.509,43.713 4.433,43.259 C 4.432,43.254 4.437,43.25 4.436,43.245 4.435,43.24 4.431,43.237 4.431,43.232 L 4.404,42.323 c 0,-0.008 0.008,-0.013 0.008,-0.021 0,-0.008 -0.006,-0.015 -0.004,-0.024 L 4.515,41.77 c 0.002,-0.005 0.007,-0.007 0.009,-0.013 0.002,-0.005 -0.002,-0.01 0,-0.014 l 0.067,-0.179 v -0.207 0 L 4.538,39.579 v 0 L 4.485,38.708 4.327,37.783 c 0,-0.001 0.001,-0.002 0.001,-0.004 0,-0.001 -0.002,-0.002 -0.002,-0.004 L 4.113,36.09 C 4.112,36.083 4.118,36.078 4.118,36.071 4.117,36.046 4.128,36.026 4.137,36.002 4.146,35.978 4.151,35.958 4.168,35.94 4.173,35.935 4.171,35.927 4.177,35.922 l 0.749,-0.646 0.462,-0.818 0.741,-1.614 0.339,-0.837 0.128,-0.769 0.08,-1.592 c 0,-0.003 0.003,-0.005 0.003,-0.008 0,-0.003 -0.002,-0.005 -0.002,-0.008 l 0.188,-1.441 c 10e-4,-0.01 0.011,-0.015 0.014,-0.024 0.002,-0.009 -0.004,-0.019 0,-0.027 l 0.455,-1.042 c 0.002,-0.005 0.01,-0.006 0.012,-0.012 0.003,-0.006 0,-0.012 0.003,-0.018 L 7.65,26.613 7.718,26.316 7.743,25.648 V 25.647 22.04 c 0,-0.105 0.085,-0.19 0.19,-0.19 0.105,0 0.19,0.085 0.19,0.19 v 3.607 c 0,0.001 -10e-4,0.002 -10e-4,0.004 0,0.002 10e-4,0.002 10e-4,0.003 L 8.097,26.35 c 0,0.007 -0.007,0.011 -0.008,0.017 -0.001,0.007 0.005,0.012 0.003,0.019 l -0.081,0.347 c -0.003,0.014 -0.016,0.021 -0.021,0.033 -0.004,0.01 0,0.021 -0.006,0.029 l -0.311,0.468 -0.437,1.001 -0.183,1.407 -0.079,1.596 c -0.001,0.004 -0.004,0.007 -0.005,0.011 0,0.004 0.003,0.007 0.003,0.011 l -0.134,0.802 c -0.001,0.008 -0.009,0.012 -0.011,0.02 -0.002,0.007 0.003,0.013 0,0.021 L 6.48,32.988 c -0.001,0.002 -0.003,0.003 -0.004,0.004 0,0.001 0,0.002 0,0.004 l -0.749,1.63 C 5.726,34.629 5.722,34.63 5.721,34.633 5.72,34.635 5.722,34.638 5.72,34.64 L 5.239,35.494 C 5.234,35.502 5.222,35.5 5.217,35.507 5.209,35.52 5.21,35.535 5.198,35.545 l -0.697,0.602 0.2,1.575 c 0,0 0,0 0,0 l 0.159,0.935 c 10e-4,0.004 -0.003,0.007 -0.002,0.011 0,0.003 0.004,0.005 0.004,0.01 l 0.054,0.881 c 0,0.001 -0.001,0.002 -0.001,0.003 0,0.001 0.001,0.002 0.001,0.003 l 0.054,1.791 c 0,10e-4 -10e-4,10e-4 -10e-4,0.002 0,0.001 10e-4,0.002 10e-4,0.003 v 0.24 c 0,0.013 -0.011,0.021 -0.014,0.033 -0.002,0.012 0.005,0.022 10e-4,0.034 l -0.074,0.196 -0.102,0.476 0.026,0.871 0.079,0.469 c 0.002,0.01 -0.006,0.018 -0.006,0.028 0,0.01 0.009,0.017 0.007,0.027 l -0.054,0.428 c -0.001,0.011 -0.011,0.016 -0.014,0.026 -0.002,0.009 0.003,0.018 0,0.026 l -0.179,0.407 -0.072,0.411 0.053,1.784 0.14,0.774 0.191,-0.43 c 0.002,-0.005 0.008,-0.005 0.01,-0.01 0.002,-0.004 0,-0.01 0.002,-0.014 l 0.129,-0.208 0.238,-0.472 c 0.009,-0.02 0.03,-0.025 0.044,-0.039 0.015,-0.015 0.021,-0.036 0.041,-0.046 10e-4,-10e-4 0.002,0 0.003,-10e-4 0.001,0 0.001,-0.001 0.002,-0.002 L 5.756,46.215 6.497,45.73 7.587,44.507 7.968,43.798 8.2,42.973 8.359,42.176 c 10e-4,-0.004 0.005,-0.005 0.006,-0.009 10e-4,-0.004 -0.002,-0.007 0,-0.01 L 8.631,41.308 9.004,39.765 C 9.006,39.757 9.015,39.753 9.018,39.745 9.021,39.737 9.016,39.728 9.02,39.72 l 0.908,-1.709 c 0,0 0,0 0,0 l 0.224,-0.449 0.049,-0.344 c 0,-0.005 0.005,-0.006 0.006,-0.01 10e-4,-0.004 -0.002,-0.008 -0.001,-0.012 l 0.184,-0.708 0.104,-0.817 c 10e-4,-0.012 0.013,-0.019 0.016,-0.03 0.003,-0.01 -0.003,-0.021 0.002,-0.03 l 0.315,-0.629 0.209,-0.604 c 0.003,-0.008 0.012,-0.01 0.015,-0.018 0.003,-0.007 0,-0.015 0.004,-0.022 l 0.321,-0.508 c 0.001,-0.002 0.002,-0.002 0.004,-0.003 10e-4,-10e-4 0,-0.003 10e-4,-0.005 l 0.17,-0.242 0.067,-0.226 0.107,-0.479 c 0.002,-0.008 0.01,-0.012 0.013,-0.019 0.002,-0.008 -0.002,-0.015 0.001,-0.021 l 0.267,-0.561 0.115,-0.277 V 31.795 L 11.96,28.813 c 0,-0.002 10e-4,-0.004 10e-4,-0.005 0,-0.002 -0.002,-0.003 -0.002,-0.005 v -0.337 l -0.075,-0.554 -0.208,-0.598 c -10e-4,-0.003 10e-4,-0.005 0,-0.008 -10e-4,-0.003 -0.004,-0.005 -0.005,-0.008 L 11.538,26.763 C 11.537,26.758 11.541,26.754 11.54,26.749 11.539,26.743 11.533,26.74 11.532,26.734 L 11.481,26.153 11.335,25.835 C 11.331,25.827 11.337,25.82 11.334,25.812 11.331,25.803 11.322,25.798 11.32,25.788 l -0.054,-0.32 c -10e-4,-0.006 0.004,-0.01 0.004,-0.016 0,-0.006 -0.006,-0.01 -0.006,-0.016 v -0.669 -0.001 l -0.053,-1.667 -0.16,-1.709 c 0,-0.005 0.004,-0.008 0.004,-0.013 0,-0.005 -0.005,-0.008 -0.004,-0.012 l 0.026,-0.674 -0.046,-0.271 -0.144,-0.265 v 0 c 0,0 0,0 0,-0.001 v 0 C 10.878,20.137 10.885,20.12 10.882,20.103 10.876,20.071 10.863,20.04 10.873,20.01 c 0.003,-0.01 0.015,-0.015 0.02,-0.024 0.016,-0.034 0.035,-0.068 0.07,-0.088 l 0.262,-0.144 0.217,-0.265 c 10e-4,-0.001 0.002,0 0.003,-0.001 10e-4,-0.001 0,-0.003 10e-4,-0.004 l 0.174,-0.198 c 0.032,-0.06 0.083,-0.107 0.156,-0.107 h 0.162 l 0.016,-0.016 -1.127,-0.644 c 0,0 0,0 0,0 0,0 0,0 0,0 l -0.159,-0.092 0.076,0.095 0.098,0.098 c 10e-4,10e-4 10e-4,0.003 0.002,0.005 0.018,0.018 0.02,0.043 0.029,0.066 0.008,0.023 0.024,0.043 0.023,0.067 0,0.002 0.002,0.003 0.002,0.005 l -0.027,0.552 v 1.015 c 0,0.004 -0.004,0.006 -0.005,0.01 0,0.004 0.004,0.006 0.003,0.01 l -0.052,0.472 -0.133,2 0.106,4.236 c 0,0.001 0,0.001 0,0.002 0,0.001 0,0.002 0,0.003 v 0.24 c 0,0.01 -0.009,0.016 -0.01,0.025 -10e-4,0.009 0.006,0.018 0.003,0.027 l -0.054,0.187 c -0.006,0.021 -0.023,0.034 -0.036,0.052 -0.008,0.012 -0.012,0.024 -0.024,0.034 -0.034,0.031 -0.076,0.051 -0.123,0.051 h -0.08 c -0.045,0 -0.085,-0.02 -0.119,-0.049 -0.01,-0.008 -0.017,-0.017 -0.025,-0.027 -0.009,-0.012 -0.022,-0.019 -0.028,-0.032 l -0.24,-0.509 c -10e-4,-0.001 0,-0.003 0,-0.005 -10e-4,-0.002 -0.004,-0.003 -0.005,-0.005 L 9.943,26.785 C 9.939,26.776 9.945,26.768 9.943,26.76 9.941,26.75 9.931,26.744 9.93,26.734 L 9.903,26.467 c 0,-10e-4 10e-4,-0.002 10e-4,-0.003 0,-10e-4 -10e-4,-0.002 -10e-4,-0.003 L 9.876,26.06 c 0,-0.004 0.003,-0.006 0.003,-0.01 0,-0.004 -0.003,-0.005 -0.003,-0.009 l 0.133,-4.027 v 0 -2.028 L 9.983,19.512 c 0,-0.011 0.009,-0.018 0.01,-0.028 10e-4,-0.01 -0.006,-0.018 -0.004,-0.028 l 0.05,-0.198 0.033,-0.288 C 10.063,18.966 10.056,18.96 10.048,18.954 10.033,18.945 10.015,18.947 10.003,18.933 L 9.421,18.272 8.893,17.769 C 8.891,17.767 8.891,17.762 8.889,17.759 8.886,17.756 8.881,17.757 8.879,17.754 L 8.317,17.09 7.674,16.77 5.737,16.304 5.589,16.617 C 5.583,16.631 5.57,16.638 5.56,16.649 5.556,16.656 5.558,16.665 5.552,16.67 l -0.32,0.321 c -0.001,0.001 -0.004,0.001 -0.005,0.002 -0.001,0.001 0,0.003 -0.002,0.004 l -0.829,0.748 c 0,0 -0.001,0 -0.002,10e-4 -0.001,0 -0.001,0.002 -0.001,0.002 L 3.68,18.36 3.595,18.575 c 0,0.001 0,0.001 0,0.001 L 3.408,19.11 c -10e-4,0 -10e-4,0.001 -10e-4,0.001 v 10e-4 l -0.348,0.959 c 0,0 0,0 0,0 L 2.367,22.015 1.839,24.129 1.652,25.51 c -10e-4,0.007 -0.008,0.011 -0.009,0.018 -0.002,0.006 0.002,0.012 10e-4,0.018 l -0.346,1.012 -0.288,1.101 -0.159,1.03 -0.186,1.945 c 0,0.001 -0.002,0.002 -0.002,0.003 0,0.001 0.003,0.005 0.003,0.007 l -0.267,1.95 -0.213,1.885 -0.133,2.135 c 0,0 -0.001,0 -0.001,0 L 0,38.905 c 0,10e-4 0,10e-4 0,10e-4 l 0.052,2.222 0.294,2.211 c 0.001,0.004 -0.004,0.008 -0.003,0.012 10e-4,0.004 0.005,0.008 0.005,0.013 v 2.187 l 0.079,1.023 c 0,0 0,0 0,0 l 0.134,1.149 c 0,0.002 -0.002,0.004 -0.002,0.006 0,0.002 0.003,0.003 0.003,0.005 l 0.054,1.042 c 0,0.006 -0.005,0.01 -0.005,0.016 0,0.007 0.005,0.011 0.004,0.017 l -0.096,0.808 z"
     id="path112" /><polygon
     transform="translate(-37.334,-2.293)"
     style="fill:#000000"
     points="47.745,29.213 47.667,26.124 47.594,28.334 47.62,28.723 47.644,28.964 47.738,29.199 "
     id="polygon114" /><path
     inkscape:connector-curvature="0"
     style="fill:#000000"
     d="m 7.807,16.418 c 0.008,0.002 0.016,-0.002 0.023,0.001 l 0.696,0.347 c 0.013,0.007 0.016,0.021 0.025,0.03 0.011,0.008 0.026,0.007 0.035,0.018 l 0.582,0.688 0.525,0.5 c 0.002,0.002 0.001,0.006 0.004,0.008 0.002,0.003 0.006,0.002 0.008,0.004 l 0.419,0.477 c 0.009,-0.02 0.01,-0.045 0.025,-0.06 0,0 0,0 0,-0.001 l 0.081,-0.079 c 0.005,-0.005 0.012,-0.003 0.017,-0.007 0.02,-0.016 0.041,-0.02 0.065,-0.026 0.024,-0.007 0.044,-0.017 0.069,-0.014 0.007,0 0.012,-0.005 0.019,-0.004 L 10.479,18.316 10.137,18.12 9.694,17.91 C 9.685,17.906 9.684,17.896 9.676,17.89 9.667,17.884 9.655,17.887 9.648,17.879 L 9.353,17.611 C 9.35,17.608 9.351,17.603 9.348,17.599 9.345,17.596 9.34,17.598 9.337,17.594 L 7.987,16.032 7.28,15.483 C 7.278,15.482 7.279,15.478 7.277,15.477 7.275,15.475 7.271,15.476 7.269,15.474 L 6.789,15.042 H 6.488 L 6.474,15.05 6.461,15.123 c -0.002,0.011 -0.012,0.017 -0.015,0.026 -0.002,0.008 0.002,0.017 -0.002,0.025 l -0.011,0.023 0.011,0.024 c 0.006,0.011 0,0.024 0.002,0.035 0.007,0.025 0.007,0.044 0.004,0.07 -0.002,0.025 -0.008,0.044 -0.02,0.066 -0.005,0.011 -0.002,0.024 -0.01,0.033 l -0.446,0.54 1.813,0.437 c 0.01,0.005 0.013,0.014 0.02,0.016 z"
     id="path116" /><path
     inkscape:connector-curvature="0"
     style="fill:#000000"
     d="m 11.867,95.526998 c -0.003,0.004 -0.003,0.01 -0.008,0.013 l -0.156,0.105 -0.375,0.267 c -0.007,0.006 -0.017,0.004 -0.024,0.008 -0.006,0.003 -0.007,0.011 -0.013,0.013 l -0.32,0.134 c -0.024,0.01 -0.049,0.015 -0.073,0.015 h -0.187 c -0.004,0 -0.009,0 -0.014,0 l -1.898,-0.134 c 0,0 0,0 -10e-4,0 -10e-4,-0.001 -0.003,0 -0.005,-0.001 l -0.506,-0.053 c -0.007,-10e-4 -0.01,-0.008 -0.017,-0.009 -0.021,-0.004 -0.042,-0.006 -0.062,-0.018 l -0.4,-0.24 c -0.011,-0.006 -0.012,-0.021 -0.021,-0.028 -0.008,-0.007 -0.021,-0.005 -0.027,-0.014 l -0.642,-0.775 c -0.001,-10e-4 0,-0.003 -0.001,-0.005 -0.001,-10e-4 -0.003,0 -0.004,-0.002 l -0.561,-0.748 v 0 c 0,-10e-4 -10e-4,0 -10e-4,-10e-4 l -0.164,-0.222 0.304,0.913 0.223,0.396 0.308,0.359 0.307,0.359 0.227,0.174 c 0.007,0.006 0.007,0.016 0.012,0.021 0.006,0.006 0.016,0.005 0.021,0.012 l 0.049,0.062 h 3.804 l 0.079,-0.14199 0.196,-0.414 0.013,-0.115 -0.005,0.011 c -0.016,0.025 -0.037,0.043 -0.058,0.059 z"
     id="path118" /><path
     inkscape:connector-curvature="0"
     style="fill:#000000"
     d="m 17.618,88.787 -0.375,0.026 c -0.005,0 -0.009,10e-4 -0.013,10e-4 h -1.692 l -0.281,0.052 0.432,0.327 c 0.003,0.002 0.002,0.006 0.005,0.009 0.003,0.002 0.007,0.001 0.009,0.003 l 0.662,0.61 0.225,0.183 0.033,-0.006 0.232,-0.161 h 0.001 c 0,-0.001 0,-0.001 10e-4,-0.001 l 0.714,-0.485 0.031,-0.053 v -0.16 c 0,-0.014 0.013,-0.022 0.015,-0.035 0.003,-0.013 -0.005,-0.024 0,-0.037 l 0.119,-0.29 -0.103,0.016 c -0.004,-0.001 -0.009,-0.001 -0.015,0.001 0.001,-0.001 0.001,0 0,0 z"
     id="path120" /><path
     inkscape:connector-curvature="0"
     style="fill:#000000"
     d="M 24.341,44.718 24.27,44.437 23.855,43.924 23.322,43.483 c -0.008,0.002 -0.012,0.012 -0.021,0.013 l -0.13,0.021 -0.231,0.127 -0.084,0.104 -0.061,0.081 -0.124,0.322 c -10e-4,0.002 -0.003,0.003 -0.004,0.005 -0.001,10e-4 0,0.003 0,0.005 l -0.293,0.643 c -0.007,0.014 -0.021,0.021 -0.029,0.034 -0.006,0.006 -0.003,0.016 -0.01,0.022 l -0.267,0.267 -0.268,0.268 c -0.008,0.007 -0.018,0.005 -0.025,0.011 -0.007,0.006 -0.009,0.016 -0.018,0.021 l -0.217,0.12 -0.071,0.072 -0.039,0.065 0.023,0.481 0.067,0.248 0.039,0.066 0.324,-0.239 0.331,-0.355 0.21,-0.262 c 0.015,-0.019 0.037,-0.021 0.056,-0.031 0.021,-0.013 0.034,-0.033 0.058,-0.037 0.003,-10e-4 0.005,0.002 0.008,10e-4 0.024,-0.003 0.046,0.01 0.07,0.016 0.024,0.006 0.049,0.005 0.069,0.02 0.002,0.002 0.004,0.001 0.006,0.002 0.018,0.014 0.019,0.036 0.03,0.055 0.013,0.021 0.033,0.034 0.038,0.06 l 0.053,0.289 0.315,1.208 0.095,-0.108 0.179,-0.281 c 0.006,-0.008 0.017,-0.008 0.022,-0.016 0.006,-0.007 0.005,-0.018 0.012,-0.024 l 0.241,-0.213 c 0.002,-10e-4 0.004,0 0.006,-10e-4 0.002,-0.002 0.001,-0.004 0.003,-0.006 l 0.239,-0.188 c 0.016,-0.012 0.035,-0.008 0.053,-0.015 0.017,-0.007 0.027,-0.023 0.047,-0.024 l 0.295,-0.028 c 0.004,0 0.006,0.003 0.009,0.003 0.004,0 0.005,-0.004 0.009,-0.004 h 0.07 l 0.037,-0.014 0.09,-0.163 0.066,-0.22 v -0.267 -0.269 l -0.133,-0.222 c -0.004,-0.007 0,-0.015 -0.004,-0.022 C 24.459,45.115 24.449,45.11 24.446,45.1 L 24.34,44.726 c 0,-10e-4 0.001,-0.002 0.001,-0.003 10e-4,-0.003 0,-0.004 0,-0.005 z"
     id="path122" /><path
     inkscape:connector-curvature="0"
     style="fill:#000000"
     d="m 26.135,42.838 c -0.001,-0.004 0.002,-0.008 0,-0.012 0,-0.003 -0.005,-0.005 -0.006,-0.01 l -0.293,-1.282 c -0.002,-0.011 0.006,-0.021 0.005,-0.032 0,-0.012 -0.01,-0.02 -0.009,-0.031 l 0.105,-0.95 v -0.404 l -0.019,-0.111 -0.089,-0.155 c -0.006,-0.009 0,-0.019 -0.004,-0.027 -0.005,-0.012 -0.016,-0.018 -0.019,-0.03 l -0.053,-0.268 c -0.001,-0.004 0.003,-0.007 0.002,-0.012 0,-0.005 -0.005,-0.007 -0.005,-0.012 l -0.134,-1.897 c 0,-0.002 0.001,-0.003 0.001,-0.004 0,-10e-4 -0.001,-0.002 -0.001,-0.003 l -0.027,-1.005 -0.104,-0.896 -0.08,-0.506 c -0.002,-0.009 0.006,-0.016 0.006,-0.024 0,-0.008 -0.009,-0.016 -0.008,-0.025 l 0.052,-0.494 v -0.91 l -0.101,-0.46 c -10e-4,-0.006 0.003,-0.01 0.002,-0.016 0,-0.006 -0.006,-0.009 -0.007,-0.015 l -0.027,-0.509 c -10e-4,-0.006 0.005,-0.009 0.005,-0.016 0,-0.005 -0.005,-0.009 -0.004,-0.015 l 0.054,-0.506 c 0.001,-0.011 0.012,-0.017 0.015,-0.027 0.003,-0.011 -0.003,-0.022 0.002,-0.034 l 0.164,-0.35 -0.234,-1.761 c 0,-0.002 0.002,-0.003 10e-4,-0.005 0,-0.001 -0.002,-0.002 -0.002,-0.004 l -0.159,-1.844 c 0,-10e-4 10e-4,-0.002 10e-4,-0.004 0,-0.001 -0.002,-0.002 -0.002,-0.004 l -0.079,-1.816 c 0,-0.002 0.002,-0.004 0.002,-0.007 0,-0.003 -0.002,-0.004 -0.002,-0.007 l 0.052,-1.764 -0.208,-0.857 C 24.927,23.713 24.93,23.71 24.93,23.705 24.928,23.701 24.924,23.699 24.923,23.694 l -0.105,-0.881 c -0.001,-0.003 0.003,-0.006 0.003,-0.01 -0.001,-0.004 -0.004,-0.006 -0.004,-0.01 l -0.028,-1.818 c 0,0 10e-4,-0.001 10e-4,-0.001 0,0 -10e-4,0 -10e-4,-0.001 V 20.136 L 24.718,19.991 24.579,19.854 C 24.573,19.849 24.575,19.84 24.57,19.835 24.561,19.824 24.549,19.817 24.542,19.804 l -0.213,-0.427 -0.222,-0.395 -0.316,-0.292 -0.644,-0.436 0.051,0.581 c 0.011,0.005 0.019,0.012 0.028,0.02 0.005,0.004 0.013,0.002 0.017,0.007 0.014,0.014 0.012,0.033 0.021,0.049 0.01,0.017 0.027,0.026 0.031,0.047 l 0.024,0.117 0.12,0.29 0.126,0.2 c 0.008,0.014 0.002,0.029 0.007,0.042 0.005,0.016 0.02,0.026 0.021,0.043 l 0.026,0.321 c 0,0.001 -0.001,0.001 -0.001,0.002 0,0.001 0.002,0.001 0.002,0.002 l 0.026,0.472 0.079,0.582 c 0,0.001 0,0.001 0,0.001 0,0 0,0 0,10e-4 l 0.267,2.128 c 0,0.001 0,0.001 0,0.001 l 0.187,1.095 c 0,0.002 -0.002,0.004 -0.002,0.007 0.001,0.003 0.004,0.004 0.004,0.006 l 0.106,1.095 c 0.001,0.004 -0.003,0.006 -0.003,0.009 0,0.004 0.004,0.006 0.004,0.009 v 1.069 c 0,0.003 -0.003,0.004 -0.003,0.007 0,0.002 0.003,0.004 0.003,0.007 l -0.08,1.097 c 0,0.004 -0.004,0.006 -0.004,0.009 -0.001,0.003 0.002,0.006 0.002,0.009 l -0.051,0.298 0.025,0.295 c 0,0.003 -0.003,0.005 -0.002,0.008 0,0.003 0.003,0.005 0.003,0.008 v 0.57 l 0.023,0.115 c 0.004,0.022 -0.01,0.04 -0.013,0.062 -0.003,0.021 0.006,0.041 -0.004,0.061 l -0.08,0.16 c -0.002,0.005 -0.008,0.007 -0.011,0.012 -0.001,0.003 0,0.007 -0.001,0.01 l -0.055,0.08 c -0.003,0.005 -0.01,0.003 -0.013,0.007 -0.037,0.046 -0.088,0.077 -0.145,0.077 -0.03,0 -0.06,-0.007 -0.087,-0.021 L 23.74,29.293 v 0 l -0.156,-0.077 c -0.003,-0.001 -0.003,-0.005 -0.006,-0.007 -0.037,-0.021 -0.069,-0.05 -0.086,-0.092 l -0.054,-0.134 c -0.005,-0.012 0.003,-0.024 0,-0.037 -0.003,-0.012 -0.015,-0.021 -0.015,-0.034 v -0.133 c 0,-0.004 0.004,-0.005 0.004,-0.009 0,-0.003 -0.002,-0.005 -0.002,-0.008 l 0.025,-0.292 0.054,-1.541 c 0,-0.007 0.007,-0.012 0.008,-0.019 0.001,-0.007 -0.005,-0.013 -0.003,-0.021 l 0.074,-0.299 v -0.297 -0.186 c 0,-10e-4 0.001,-10e-4 0.001,-0.002 0,-0.013 0.011,-0.023 0.014,-0.035 -0.003,-0.012 -0.014,-0.019 -0.015,-0.031 L 23.53,25.264 23.452,24.561 23.318,23.788 c -0.001,-0.004 0.003,-0.007 0.003,-0.01 -0.001,-0.004 -0.005,-0.006 -0.005,-0.01 l -0.053,-0.776 c 0,0 0,-0.001 0,-0.001 0,0 0,0 0,-0.001 l -0.026,-0.434 -0.045,-0.174 -0.031,1.297 c 0,0.002 -0.002,0.003 -0.002,0.005 0,0.002 0.002,0.004 0.002,0.006 l -0.133,1.539 v 2.239 l 0.026,0.562 0.128,0.611 0.208,0.547 c 10e-4,0.004 -0.002,0.008 -0.001,0.013 0.002,0.004 0.007,0.006 0.008,0.011 l 0.134,0.562 c 0.001,0.005 -0.003,0.008 -0.002,0.012 0.001,0.004 0.005,0.006 0.006,0.011 l 0.134,1.122 v 0.001 l 0.186,1.167 c 0,10e-4 0,10e-4 0,10e-4 0,10e-4 0.001,10e-4 0.001,0.002 l 0.08,0.562 c 0.001,0.005 -0.004,0.009 -0.004,0.014 0.001,0.005 0.006,0.008 0.006,0.013 v 0.319 c 0,0.018 -0.015,0.029 -0.02,0.046 -0.004,0.016 0.003,0.033 -0.006,0.048 l -0.081,0.142 0.078,2.256 0.213,1.272 c 0.001,0.006 -0.005,0.011 -0.004,0.018 0,0.006 0.007,0.011 0.007,0.017 l -0.028,1.389 c 0,0.005 -0.006,0.009 -0.006,0.014 0,0.005 0.004,0.009 0.003,0.014 l -0.186,1.089 -0.105,1.22 c 0,0.003 -0.004,0.005 -0.004,0.009 -0.001,0.003 0.002,0.006 0.002,0.009 l -0.214,1.175 c 0,0.004 -0.005,0.006 -0.006,0.011 -0.001,0.003 0.002,0.007 0.001,0.011 l -0.348,1.15 c -0.001,0.001 -0.003,0.002 -0.004,0.005 0,10e-4 0.001,0.003 0,0.004 l -0.084,0.24 0.021,-0.003 c 0.03,-0.021 0.062,-0.043 0.103,-0.043 h 0.105 c 0.024,0 0.041,0.018 0.062,0.025 0.021,0.007 0.043,0.004 0.06,0.019 l 0.615,0.508 c 0.006,0.005 0.004,0.013 0.01,0.018 0.005,0.005 0.012,0.004 0.017,0.01 l 0.454,0.561 c 0.009,0.011 0.005,0.026 0.012,0.039 0.007,0.013 0.021,0.02 0.024,0.035 l 0.079,0.316 0.101,0.35 0.147,0.245 c 0.01,0.016 0.003,0.033 0.007,0.05 0.005,0.018 0.021,0.029 0.021,0.048 v 0.245 c 0.004,-0.002 0.008,-0.001 0.012,-0.003 0.006,-0.003 0.007,-0.012 0.013,-0.014 l 0.294,-0.133 c 0.003,-0.002 0.007,0.001 0.011,-10e-4 0.003,-10e-4 0.004,-0.005 0.008,-0.007 l 0.316,-0.105 0.108,-0.044 0.098,-0.064 0.243,-0.559 0.104,-0.287 0.173,-0.544 -0.047,-0.443 z"
     id="path124" /><path
     inkscape:connector-curvature="0"
     style="fill:#000000"
     d="m 13.187,57.411 v 0 l 0.93,-1.833 0.153,-0.405 0.1,-0.479 0.027,-0.865 c 0,-10e-4 10e-4,-10e-4 10e-4,-0.003 0,-10e-4 -10e-4,-0.002 -10e-4,-0.003 l 0.025,-0.401 c 10e-4,-0.014 0.014,-0.021 0.018,-0.034 0.003,-0.013 -0.004,-0.026 0.003,-0.038 l 0.262,-0.523 0.396,-0.975 0.205,-0.821 0.053,-0.893 c 0.006,-0.104 0.098,-0.183 0.201,-0.179 0.104,0.007 0.185,0.097 0.178,0.201 l -0.054,0.908 c 0,0.007 -0.007,0.011 -0.008,0.018 -10e-4,0.006 0.004,0.012 0.003,0.018 l -0.214,0.855 c -10e-4,0.005 -0.007,0.007 -0.008,0.012 -0.002,0.005 0.002,0.009 0,0.014 l -0.4,0.986 c -0.002,0.004 -0.005,0.005 -0.007,0.008 0,0.002 10e-4,0.004 0,0.006 l -0.25,0.5 -0.023,0.362 c 0,0 0,0 0,10e-4 l -0.027,0.877 c -10e-4,0.006 -0.006,0.01 -0.007,0.016 -10e-4,0.006 0.004,0.011 0.003,0.017 l -0.105,0.508 c -0.002,0.006 -0.008,0.009 -0.009,0.015 -0.002,0.004 0.002,0.009 0,0.014 l -0.161,0.428 c -0.002,0.004 -0.006,0.006 -0.008,0.01 -10e-4,0.003 0.001,0.006 -10e-4,0.009 l -0.916,1.806 -0.023,0.601 0.153,0.614 c 10e-4,0.005 -0.003,0.009 -0.003,0.014 10e-4,0.005 0.007,0.008 0.007,0.013 l 0.106,1.001 0.344,1.322 c 10e-4,0.003 -0.002,0.006 -0.002,0.008 10e-4,0.004 0.005,0.006 0.005,0.009 l 0.161,0.989 c 0,0.002 -0.002,0.004 -0.002,0.006 10e-4,0.002 0.004,0.003 0.004,0.006 l 0.08,0.828 c 0.001,0.005 -0.003,0.008 -0.003,0.013 0,0.005 0.004,0.007 0.004,0.012 l -0.027,1.035 c 0,10e-4 0,10e-4 0,10e-4 v 0.854 l 0.059,0.194 0.072,0.073 h 10e-4 v 10e-4 c 0.011,0.011 0.009,0.026 0.017,0.039 0.018,0.029 0.039,0.057 0.039,0.094 v 1.951 c 0,0.001 -0.002,0.002 -0.002,0.003 0,0.002 0.001,0.002 0.001,0.003 l -0.025,0.686 0.022,0.298 0.25,0.501 c 0.002,0.002 0,0.006 10e-4,0.009 10e-4,0.003 0.005,0.003 0.007,0.006 l 0.294,0.75 c 0.004,0.012 -0.003,0.023 -10e-4,0.036 0.003,0.012 0.014,0.021 0.014,0.033 v 0.319 c 0,0.007 -0.006,0.011 -0.007,0.017 0,0.006 0.005,0.01 0.004,0.017 l -0.081,0.455 c -0.003,0.02 -0.019,0.03 -0.027,0.048 -0.006,0.012 -0.002,0.027 -0.011,0.038 l -0.187,0.233 -0.062,0.272 0.076,0.771 c 0,0.002 -0.002,0.004 -0.002,0.007 0,0.002 0.003,0.003 0.003,0.006 l 0.026,0.775 c 0.001,0.007 -0.006,0.011 -0.007,0.018 0,0.008 0.006,0.013 0.005,0.02 l -0.374,2.271 v 0 l -0.346,2.052 -0.16,2.016 c 0,0.001 0,0.001 0,0.001 l -0.025,0.443 0.054,3.043 c 0,0.004 -0.004,0.007 -0.004,0.01 -10e-4,0.005 0.003,0.008 0.003,0.012 l -0.133,1.353 v 1.247 10e-4 c 0,0.001 0,0.001 0,0.001 l -0.026,2.333 1.057,1.226 0.615,-0.113 c 0.007,-0.001 0.011,0.004 0.018,0.004 0.007,-0.001 0.011,-0.008 0.018,-0.008 h 1.701 l 0.365,-0.025 0.177,-0.027 c 0.021,-0.002 0.036,0.012 0.057,0.015 0.021,0.004 0.045,-0.003 0.065,0.009 l 0.078,0.045 0.328,-0.244 c 0.017,-0.014 0.038,-0.01 0.058,-0.016 0.02,-0.007 0.034,-0.022 0.056,-0.022 h 0.259 l -0.362,-0.339 c -0.001,-0.002 -0.001,-0.003 -0.002,-0.004 -0.018,-0.018 -0.021,-0.044 -0.03,-0.067 -0.01,-0.022 -0.026,-0.041 -0.027,-0.064 0,-0.002 -10e-4,-0.002 -10e-4,-0.003 v -0.695 c 0,-0.012 0.01,-0.019 0.012,-0.029 0.002,-0.01 -0.006,-0.021 -0.002,-0.031 l 0.134,-0.4 c 0.002,-0.008 0.01,-0.009 0.013,-0.016 0.003,-0.006 0,-0.013 0.003,-0.02 l 0.209,-0.364 0.398,-0.852 c 10e-4,-0.001 10e-4,-0.001 0.003,-0.002 0,-10e-4 -0.001,-0.002 0,-0.002 l 0.73,-1.462 0.05,-0.664 -0.079,-0.787 -0.345,-1.964 C 19.373,80.404 19.377,80.4 19.377,80.395 19.376,80.39 19.371,80.387 19.371,80.382 l -0.054,-1.604 v 0 c 0,-0.001 0,-0.001 0,-0.001 l -0.026,-0.909 c 0,-0.011 0.01,-0.019 0.012,-0.029 10e-4,-0.011 -0.007,-0.021 -0.004,-0.031 l 0.266,-0.877 v 0 l 0.641,-2.297 0.446,-2.154 -0.05,-0.65 -0.076,-0.307 c -0.002,-0.006 0.003,-0.011 0.002,-0.018 -10e-4,-0.006 -0.008,-0.01 -0.008,-0.018 L 20.494,71.062 20.416,70.43 c -0.001,-0.008 0.007,-0.015 0.007,-0.023 0,-0.008 -0.008,-0.016 -0.007,-0.023 l 0.105,-0.828 c 10e-4,-0.006 0.008,-0.01 0.009,-0.016 0.002,-0.007 -0.003,-0.012 -0.001,-0.019 l 0.501,-1.554 0.052,-1.004 -0.106,-1.295 c 0,-0.003 0.003,-0.005 0.002,-0.008 0,-0.003 -0.003,-0.005 -0.003,-0.008 v -1.417 c 0,-0.007 0.007,-0.011 0.007,-0.017 0.001,-0.006 -0.005,-0.011 -0.004,-0.017 l 0.319,-1.803 0.025,-0.842 c 0,-0.007 0.007,-0.011 0.008,-0.019 0.001,-0.006 -0.005,-0.013 -0.003,-0.02 l 0.214,-0.909 h 0.001 l 0.343,-1.479 0.079,-1.234 -0.054,-2.096 -0.026,-0.643 c 0,-0.005 0.006,-0.008 0.006,-0.014 0,-0.006 -0.005,-0.01 -0.005,-0.016 l 0.08,-0.693 c 0.001,-0.002 0.001,-0.002 0.001,-0.004 10e-4,-0.001 0,-0.002 0,-0.003 l 0.186,-1.247 0.025,-0.564 -0.022,-0.25 -0.175,-0.399 c -0.007,-0.018 0.002,-0.034 -0.001,-0.052 -0.003,-0.017 -0.016,-0.031 -0.013,-0.049 l 0.159,-1.229 c 0.001,-0.005 0.006,-0.007 0.008,-0.013 0.001,-0.005 -0.004,-0.009 -0.002,-0.014 l 0.32,-1.148 c 0.001,-0.002 0.002,-0.002 0.002,-0.003 0.001,-10e-4 0,-0.002 0,-0.004 l 0.365,-1.144 -0.026,-0.63 c 0,0 0,0 0,0 l -0.025,-0.383 -0.293,-1.121 -0.314,0.339 c -0.005,0.005 -0.012,0.003 -0.017,0.008 -0.006,0.004 -0.005,0.012 -0.01,0.016 l -0.516,0.368 c 0,0.001 -0.001,0 -0.001,0.001 -0.001,0 0,0 -0.001,10e-4 l -0.543,0.388 -0.762,0.842 c -0.002,10e-4 -0.004,10e-4 -0.006,0.002 -10e-4,0.001 0,0.003 -0.002,0.004 l -0.48,0.48 c -0.004,0.003 -0.01,0.002 -0.014,0.006 -0.004,0.003 -0.004,0.01 -0.009,0.013 l -0.588,0.429 c -0.003,0.003 -0.007,10e-4 -0.01,0.003 -0.003,0.002 -0.003,0.006 -0.006,0.008 l -0.951,0.556 -0.23,0.179 c -0.011,0.008 -0.024,0.006 -0.036,0.012 -0.008,0.004 -0.011,0.014 -0.02,0.018 l -0.03,0.01 v 0.024 c 0,0.021 -0.017,0.035 -0.022,0.055 -0.006,0.019 -10e-4,0.038 -0.013,0.055 l -0.375,0.534 c -0.008,0.011 -0.022,0.008 -0.032,0.018 -0.021,0.02 -0.036,0.045 -0.065,0.055 l -0.668,0.212 c -0.019,0.006 -0.038,0.009 -0.058,0.009 h -0.506 c -0.047,0 -0.088,-0.02 -0.122,-0.05 -0.011,-0.01 -0.016,-0.022 -0.024,-0.034 -0.012,-0.016 -0.028,-0.027 -0.034,-0.047 l -0.375,-1.147 c -0.002,-0.007 0.003,-0.013 10e-4,-0.021 -0.002,-0.008 -0.009,-0.012 -0.01,-0.021 L 15.52,48.386 15.346,47.377 15.17,48.008 c -10e-4,0.004 -0.005,0.006 -0.006,0.009 -10e-4,0.003 10e-4,0.005 0,0.009 l -0.562,1.444 -0.237,0.687 c -10e-4,0.004 -0.005,0.006 -0.006,0.009 -10e-4,0.003 10e-4,0.005 0,0.008 l -0.134,0.295 c -0.008,0.017 -0.023,0.026 -0.035,0.041 -0.009,0.01 -0.015,0.021 -0.024,0.028 -0.033,0.025 -0.07,0.041 -0.111,0.042 -10e-4,0 -10e-4,0.001 -0.002,0.001 v 0 c -0.009,0 -0.017,-0.001 -0.024,-0.002 l -0.214,-0.028 -2.187,-0.239 c -0.004,0 -0.006,-0.005 -0.01,-0.005 -0.018,-0.003 -0.035,-0.005 -0.052,-0.013 l -1.55,-0.747 C 10.01,49.544 10.01,49.537 10.005,49.534 9.998,49.53 9.991,49.532 9.984,49.527 L 9.246,48.973 8.46,48.554 H 8.459 L 6.751,47.645 5.576,47.03 C 5.574,47.029 5.574,47.027 5.573,47.027 5.546,47.012 5.524,46.988 5.507,46.961 L 5.43,47.107 c -0.002,0.003 -0.005,0.004 -0.007,0.008 -0.001,0.002 0,0.004 -0.001,0.007 l -0.127,0.205 -0.203,0.455 -0.078,0.235 c -0.006,0.017 -0.02,0.026 -0.029,0.04 -0.005,0.008 -0.003,0.019 -0.009,0.026 L 4.81,48.27 v 0.375 l 0.076,0.835 0.435,0.845 0.582,1.06 0.772,1.171 c 0.004,0.006 0.001,0.013 0.004,0.02 0.003,0.006 0.011,0.007 0.014,0.014 l 0.475,1.161 0.305,0.507 0.177,0.203 c 0.003,0.004 10e-4,0.01 0.004,0.014 0.003,0.004 0.009,0.004 0.012,0.009 l 0.239,0.373 c 0.003,0.005 0,0.01 0.002,0.015 0.003,0.005 0.008,0.005 0.011,0.01 l 0.133,0.294 c 0.006,0.014 -10e-4,0.027 10e-4,0.041 0.003,0.014 0.016,0.023 0.016,0.037 v 0.294 0.293 c 0,0.018 -0.014,0.029 -0.019,0.046 -0.006,0.023 -0.011,0.044 -0.027,0.064 -0.015,0.02 -0.033,0.029 -0.055,0.043 -0.014,0.009 -0.021,0.025 -0.038,0.029 l -0.293,0.082 c -0.001,0.001 -0.002,0 -0.003,0.001 l -0.292,0.079 c -0.017,0.005 -0.033,0.007 -0.05,0.007 -0.012,0 -0.025,-10e-4 -0.038,-0.004 L 6.986,56.134 C 6.962,56.129 6.949,56.109 6.929,56.096 6.914,56.087 6.895,56.089 6.882,56.075 L 6.375,55.514 C 6.37,55.508 6.372,55.499 6.368,55.493 6.364,55.488 6.357,55.49 6.353,55.485 L 5.418,53.933 c -0.003,-0.005 0,-0.01 -0.002,-0.015 C 5.413,53.911 5.405,53.908 5.403,53.9 l -0.091,-0.25 -0.051,0.244 -0.077,0.718 0.025,0.361 0.124,0.372 0.316,0.74 c 0.001,0.002 -0.001,0.005 0,0.007 0.001,0.002 0.003,0.003 0.004,0.005 l 0.504,1.433 0.159,0.371 c 0.006,0.013 -0.002,0.026 0,0.039 0.003,0.013 0.015,0.022 0.015,0.036 v 0.4 c 0,0.019 -0.015,0.031 -0.02,0.048 -0.005,0.017 0.002,0.034 -0.008,0.05 l -0.08,0.134 C 6.22,58.615 6.21,58.612 6.205,58.618 6.17,58.665 6.122,58.701 6.059,58.701 H 5.899 C 5.888,58.701 5.877,58.7 5.866,58.697 L 5.741,58.676 v 0.157 c 0,0.048 -0.019,0.097 -0.056,0.134 L 5.578,59.074 C 5.541,59.111 5.493,59.13 5.444,59.13 H 5.203 c -0.049,0 -0.097,-0.019 -0.134,-0.056 L 4.855,58.86 v 0 L 4.672,58.686 v 5.356 c 0,0.002 -0.002,0.003 -0.002,0.005 0,0.002 0.002,0.003 0.002,0.005 l -0.133,2.451 0.081,2.314 c 0,0.002 -0.002,0.003 -0.002,0.005 0,0.003 0.002,0.003 0.002,0.006 l -0.028,1.415 c 0,0.004 -0.004,0.006 -0.004,0.01 0,0.003 0.003,0.005 0.002,0.008 l -0.209,1.946 -0.079,2.47 c 0,0 0,0 0,10e-4 l -0.027,2.913 v 1.411 l 0.052,0.656 0.214,2.666 0.133,1.175 c 0,0.003 -0.002,0.006 -0.002,0.009 0,0.004 0.003,0.005 0.003,0.008 l 0.027,1.064 v 0 l 0.134,2.752 c 0,0.001 -0.001,0.001 -0.001,0.002 0,10e-4 0.001,0.002 0.001,0.002 l 0.025,1.05 0.033,0.167 0.196,0.106 0.442,0.122 0.513,0.027 c 0.001,0 0.002,0.002 0.004,0.002 0.002,0 0.003,-0.002 0.005,-0.002 l 0.522,0.053 0.5,-0.025 0.487,-0.129 c 0,0 0,0 0,0 l 0.615,-0.16 c 0.008,-0.002 0.016,0.005 0.024,0.004 0.009,-0.002 0.014,-0.01 0.024,-0.01 h 0.453 c 0.002,0 0.003,0.002 0.005,0.002 0.002,0 0.003,-0.002 0.004,-0.002 l 1.009,0.052 0.213,-0.064 0.191,-0.12 c 0.012,-0.008 0.025,-0.002 0.039,-0.006 0.013,-0.006 0.02,-0.019 0.034,-0.021 l 0.226,-0.033 0.016,-0.056 0.106,-0.997 c 0,-0.001 10e-4,-0.001 10e-4,-0.002 0,-10e-4 -10e-4,-0.002 -10e-4,-0.002 L 10.654,86.291 10.6,85.134 c 0,-0.002 0.001,-0.003 0.001,-0.004 0,-0.002 -0.001,-0.004 -0.001,-0.005 v -2.614 l -0.24,-3.899 -0.127,-0.435 c -0.002,-0.008 0.004,-0.014 0.002,-0.022 -10e-4,-0.008 -0.009,-0.013 -0.01,-0.021 l -0.053,-1.148 c 0,-0.004 0.004,-0.007 0.004,-0.011 0,-0.004 -0.004,-0.006 -0.004,-0.01 l 0.053,-0.822 v -0.475 c 0,-0.012 0.01,-0.02 0.012,-0.03 0.002,-0.011 -0.005,-0.021 -10e-4,-0.03 l 0.105,-0.315 0.232,-0.93 v -0.965 l -0.026,-4.091 c 0,-0.013 0.011,-0.021 0.014,-0.033 0.002,-0.012 -0.006,-0.022 -10e-4,-0.034 l 0.161,-0.427 c 10e-4,-0.003 0.004,-0.004 0.005,-0.006 10e-4,-0.003 -0.001,-0.006 0,-0.009 l 0.204,-0.433 0.502,-2.595 c 0,-0.003 0.003,-0.003 0.004,-0.006 0,-0.007 -0.006,-0.012 -0.004,-0.019 l 0.321,-1.791 c 0,-0.003 0.003,-0.004 0.004,-0.006 0,-0.004 -0.002,-0.006 -10e-4,-0.009 l 0.209,-0.81 0.08,-1.742 c 0,-0.004 0.004,-0.005 0.004,-0.01 0,-0.004 -0.003,-0.006 -0.002,-0.01 l 0.133,-0.883 c 0,-0.004 0.005,-0.006 0.006,-0.01 10e-4,-0.004 -0.002,-0.007 -10e-4,-0.011 l 0.24,-0.906 0.293,-1.2 c 0.002,-0.008 0.01,-0.01 0.013,-0.018 0.003,-0.007 -0.002,-0.015 0.002,-0.021 l 0.454,-0.907 c -10e-4,10e-4 -10e-4,10e-4 0,0 z"
     id="path126" /><polygon
     transform="translate(-37.334,-2.293)"
     style="fill:#000000"
     points="61.141,31.165 61.148,31.183 61.151,31.175 61.141,31.118 "
     id="polygon128" /><polygon
     transform="translate(-37.334,-2.293)"
     style="fill:#000000"
     points="61.136,26.603 61.029,25.975 61.032,26.021 61.141,26.649 "
     id="polygon130" /><path
     inkscape:connector-curvature="0"
     style="fill:#000000"
     d="m 13.012,9.758 c 0.004,0.006 0,0.013 0.003,0.02 0.003,0.006 0.01,0.008 0.013,0.014 l 0.106,0.293 c 0.003,0.009 -0.003,0.016 -0.002,0.024 0.002,0.01 0.012,0.016 0.012,0.025 l 0.024,0.298 0.318,0.466 c 0.007,0.01 0.002,0.021 0.007,0.031 0.005,0.011 0.017,0.015 0.02,0.027 l 0.076,0.281 0.119,0.284 0.341,0.415 0.516,0.387 0.447,0.298 0.564,0.146 1.239,0.081 c 10e-4,0 10e-4,0 10e-4,0 l 0.813,0.024 0.269,-0.09 0.429,-0.252 0.369,-0.264 h 10e-4 l 0.63,-0.472 0.405,-0.357 0.146,-0.584 0.267,-1.172 c 0,-10e-4 0.002,-0.002 0.002,-0.003 0.007,-0.027 0.03,-0.046 0.049,-0.068 0.013,-0.016 0.019,-0.037 0.036,-0.047 0.002,-0.001 0.002,-0.004 0.004,-0.005 L 20.594,9.353 20.925,9.07 21.089,8.742 21.209,8.405 21.234,7.674 21.228,7.6 21.124,7.914 c 0,0 0,0 0,0.001 l -0.187,0.584 c -0.005,0.016 -0.019,0.024 -0.027,0.037 -0.005,0.009 -0.002,0.02 -0.009,0.028 l -0.293,0.347 c -0.001,0.001 -0.002,0.001 -0.004,0.001 -0.032,0.038 -0.078,0.063 -0.132,0.066 -0.004,0 -0.007,0 -0.01,0 -0.044,0 -0.087,-0.015 -0.122,-0.045 C 20.338,8.932 20.339,8.93 20.337,8.928 20.315,8.908 20.307,8.878 20.296,8.849 20.29,8.832 20.275,8.818 20.274,8.8 c 0,-0.001 -0.001,-0.001 -0.001,-0.003 l -0.028,-0.56 c 0,-0.007 0.007,-0.012 0.008,-0.02 0,-0.007 -0.007,-0.014 -0.005,-0.021 l 0.079,-0.472 0.025,-0.84 -0.207,-0.857 c 0,0 0.001,0 0,-0.001 0,-10e-4 -0.001,-10e-4 -0.001,-0.002 L 20.037,5.545 C 20.036,5.542 20.039,5.54 20.039,5.537 20.038,5.535 20.035,5.533 20.035,5.53 L 19.981,5.156 c -0.001,-0.004 0.003,-0.008 0.003,-0.013 0,-0.005 -0.006,-0.008 -0.006,-0.014 v -0.9 L 19.927,3.76 19.904,3.604 19.897,3.585 19.864,3.579 c -0.001,0 -0.001,-0.001 -0.002,-0.001 -0.002,0 -0.005,0 -0.007,-10e-4 L 19.214,3.417 C 19.207,3.415 19.205,3.407 19.198,3.405 19.186,3.4 19.173,3.401 19.161,3.394 L 18.821,3.185 18.212,2.867 17.592,2.581 17.459,2.542 17.456,2.545 17.387,2.8 C 17.383,2.817 17.369,2.825 17.361,2.839 17.356,2.849 17.36,2.86 17.352,2.869 L 17.245,3.003 C 17.236,3.014 17.221,3.011 17.21,3.02 17.186,3.041 17.164,3.065 17.13,3.071 l -0.294,0.052 c -0.011,0.002 -0.022,0.003 -0.033,0.003 -0.015,0 -0.029,-0.002 -0.045,-0.006 L 16.545,3.068 C 16.541,3.067 16.541,3.063 16.537,3.062 16.529,3.061 16.522,3.061 16.515,3.058 l -0.56,-0.24 -0.309,-0.119 h -0.23 l -0.639,0.05 -0.488,0.278 -0.247,0.36 -0.1,0.472 c -0.002,0.009 -0.01,0.013 -0.013,0.021 -0.002,0.007 0.002,0.014 -10e-4,0.021 l -0.214,0.452 c 0,0.001 0,0.001 0,0.001 L 13.273,5.34 13.09,6.861 c 0,0.004 -0.004,0.006 -0.005,0.01 0,0.003 0.002,0.006 0.002,0.009 l -0.158,0.712 -0.025,0.205 c 0,0.002 -0.002,0.002 -0.002,0.004 -10e-4,0.002 0,0.003 0,0.005 l -0.028,0.16 C 12.872,7.98 12.859,7.987 12.854,8 12.847,8.019 12.839,8.032 12.827,8.048 12.825,8.05 12.825,8.053 12.823,8.055 l 0.041,0.103 c 0.005,0.012 -0.002,0.024 0,0.036 0.002,0.013 0.014,0.021 0.014,0.034 v 0.213 c 0,0.105 -0.085,0.19 -0.19,0.19 -0.104,0 -0.19,-0.085 -0.19,-0.19 V 8.264 L 12.411,8.044 12.099,7.524 C 12.096,7.519 12.099,7.512 12.097,7.506 12.093,7.499 12.085,7.495 12.082,7.486 L 11.906,6.961 11.864,6.912 v 0.113 c 0,0.005 -0.006,0.009 -0.006,0.014 0,0.005 0.004,0.01 0.004,0.015 l -0.079,0.5 -0.023,0.437 0.263,0.43 c 10e-4,0.001 0,0.003 0,0.004 10e-4,10e-4 0.003,10e-4 0.004,0.003 l 0.257,0.464 0.362,0.41 0.034,0.017 h 0.008 c 0.105,0 0.19,0.085 0.19,0.19 v 0.027 z"
     id="path132" /><path
     inkscape:connector-curvature="0"
     style="fill:#000000"
     d="m 21.426,16.146 0.079,0.377 c 0.001,0.007 -0.005,0.013 -0.004,0.02 10e-4,0.007 0.008,0.012 0.008,0.02 v 1.068 c 0,0.005 -0.005,0.007 -0.005,0.011 0,0.004 0.004,0.007 0.003,0.012 l -0.053,0.429 c -0.001,0.008 -0.009,0.013 -0.011,0.021 -0.002,0.008 0.003,0.015 10e-4,0.021 l -0.107,0.294 c -0.009,0.021 -0.026,0.034 -0.04,0.051 -0.006,0.007 -0.004,0.018 -0.012,0.024 -0.003,0.003 -0.007,0.001 -0.01,0.004 -0.034,0.027 -0.074,0.045 -0.117,0.045 -0.022,0 -0.044,-0.004 -0.065,-0.012 -0.018,-0.006 -0.022,-0.023 -0.037,-0.034 -0.012,-0.008 -0.028,-0.006 -0.038,-0.017 L 20.75,18.186 c -0.003,-0.004 -0.002,-0.01 -0.005,-0.014 -0.003,-0.003 -0.009,-0.002 -0.011,-0.005 l -0.31,-0.449 0.06,0.383 0.242,0.412 0.156,0.205 c 0,0.001 0,0.004 10e-4,0.005 0.001,0.002 0.003,0.001 0.005,0.003 l 0.446,0.658 0.131,0.153 0.214,0.107 0.596,0.155 c 0.018,0.005 0.024,0.021 0.039,0.03 0.016,0.009 0.034,0.006 0.046,0.02 l 0.315,0.314 0.056,-0.039 V 20.09 c 0,-0.004 0.003,-0.005 0.003,-0.009 10e-4,-0.003 -0.002,-0.005 -0.002,-0.007 l 0.027,-0.322 c 0,-10e-4 0.001,-0.002 0.001,-0.003 0,-10e-4 -0.001,-0.002 -0.001,-0.003 l 0.077,-0.675 -0.102,-1.154 -0.249,-0.598 -0.38,-0.581 -0.529,-0.504 z"
     id="path134" /><path
     inkscape:connector-curvature="0"
     style="fill:#000000"
     d="m 23.213,37.129 0.026,-1.269 -0.132,-1.397 -0.426,-2.689 -0.276,-1.142 -0.029,0.058 -0.198,0.546 0.025,0.643 0.238,1.406 c 0,0.001 -10e-4,0.002 -10e-4,0.003 0,0.001 10e-4,0.002 10e-4,0.003 l 0.107,0.802 c 0,0.002 -0.002,0.003 -0.002,0.005 0.001,0.002 0.003,0.002 0.003,0.004 l 0.026,0.32 c 0.001,0.01 -0.007,0.017 -0.008,0.025 0,0.01 0.007,0.017 0.006,0.026 L 22.492,34.9 v 0 l -0.133,0.692 -0.105,0.717 c 0,0.003 -0.003,0.005 -0.004,0.007 -0.001,0.003 0.002,0.005 0.001,0.008 l -0.357,1.532 0.327,0.585 0.22,0.244 0.133,0.133 c 0.037,0.037 0.056,0.086 0.056,0.135 v 0.213 c 0,0.005 -0.005,0.008 -0.005,0.014 -0.001,0.004 0.004,0.008 0.003,0.013 l -0.105,0.722 c -0.002,0.011 -0.012,0.016 -0.015,0.026 -0.003,0.009 0.003,0.018 -10e-4,0.026 l -0.306,0.66 -0.052,1.392 0.021,0.233 0.101,0.146 0.277,-0.87 0.238,-1.511 c 0,-0.001 0.002,-0.002 0.002,-0.004 0.001,-10e-4 -0.001,-0.003 -0.001,-0.005 l 0.293,-1.405 z"
     id="path136" /><path
     inkscape:connector-curvature="0"
     style="fill:#000000"
     d="M 21.564,20.007 C 21.56,20.006 21.558,20.001 21.554,20 21.545,19.998 21.535,19.999 21.527,19.994 L 21.26,19.86 c -0.014,-0.006 -0.017,-0.022 -0.027,-0.031 -0.01,-0.008 -0.024,-0.005 -0.032,-0.015 L 21.04,19.626 C 21.037,19.622 21.039,19.617 21.036,19.614 21.034,19.611 21.03,19.612 21.027,19.61 l -0.119,-0.176 0.079,0.24 0.367,0.734 c 0.002,0.003 -10e-4,0.008 0.001,0.011 0.002,0.004 0.007,0.005 0.008,0.009 l 0.294,0.802 c 0.002,0.004 -0.001,0.007 0,0.011 0.001,0.004 0.005,0.005 0.006,0.009 l 0.08,0.32 c 0.001,0.004 -0.003,0.008 -0.002,0.012 0.001,0.004 0.005,0.006 0.006,0.01 l 0.054,0.427 c 0.001,0.003 -0.002,0.005 -0.002,0.007 0,0.002 0.004,0.004 0.004,0.007 l 0.053,1.116 0.145,0.991 0.013,-0.091 c 0,-0.002 0.002,-0.002 0.002,-0.004 0.001,-0.001 -10e-4,-0.003 -10e-4,-0.004 l 0.209,-1.127 -0.052,-1.062 -0.158,-1.143 c -10e-4,-0.006 0.005,-0.01 0.005,-0.017 -10e-4,-0.006 -0.007,-0.01 -0.007,-0.016 l 0.021,-0.542 z"
     id="path138" /><path
     inkscape:connector-curvature="0"
     style="fill:#000000"
     d="m 21.075,45.535 0.08,-0.133 c 0.005,-0.007 0.015,-0.007 0.02,-0.014 0.005,-0.006 0.003,-0.015 0.009,-0.021 l 0.106,-0.108 c 0.007,-0.007 0.019,-0.005 0.026,-0.011 0.007,-0.006 0.008,-0.017 0.017,-0.021 l 0.217,-0.12 0.249,-0.25 0.243,-0.243 0.277,-0.607 0.131,-0.339 c 0.004,-0.009 0.014,-0.011 0.019,-0.02 0.005,-0.008 10e-4,-0.018 0.007,-0.025 l 0.077,-0.104 -0.076,-0.067 C 22.47,43.446 22.471,43.436 22.465,43.429 22.452,43.414 22.436,43.404 22.427,43.384 L 22.353,43.213 22.174,42.931 V 42.93 L 21.83,42.427 c -0.01,-0.013 -0.004,-0.028 -0.01,-0.043 -0.007,-0.017 -0.021,-0.027 -0.023,-0.047 l -0.026,-0.293 c -0.001,-0.005 0.003,-0.008 0.003,-0.013 0,-0.004 -0.004,-0.007 -0.004,-0.012 l 0.054,-1.443 c 10e-4,-0.013 0.013,-0.02 0.016,-0.031 0.003,-0.014 -0.005,-0.028 0.002,-0.042 l 0.31,-0.67 0.1,-0.678 V 39.032 L 22.174,38.954 C 22.172,38.952 22.173,38.95 22.172,38.948 22.17,38.946 22.168,38.947 22.167,38.946 L 21.928,38.678 C 21.922,38.671 21.924,38.661 21.919,38.654 21.915,38.649 21.906,38.65 21.903,38.645 l -0.375,-0.668 c -0.011,-0.021 -0.004,-0.043 -0.008,-0.066 -0.003,-0.023 -0.018,-0.045 -0.012,-0.07 l 0.374,-1.598 0.104,-0.711 c 0,-10e-4 0.002,-0.002 0.002,-0.004 0,-0.002 -0.001,-0.003 -0.001,-0.005 l 0.134,-0.695 0.076,-0.4 -0.024,-0.289 -0.107,-0.793 -0.24,-1.415 c -0.001,-0.004 0.003,-0.008 0.003,-0.012 -0.001,-0.005 -0.005,-0.007 -0.006,-0.012 L 21.797,31.213 C 21.796,31.2 21.808,31.191 21.81,31.178 21.811,31.165 21.803,31.154 21.808,31.14 l 0.215,-0.588 c 0.001,-0.004 0.006,-0.005 0.008,-0.009 0.002,-0.004 -10e-4,-0.008 0.001,-0.012 l 0.246,-0.493 V 29.553 L 22.118,27 21.96,25.68 21.804,25.081 c 0,-0.001 0.001,-0.002 0,-0.004 0,-0.001 -10e-4,-0.001 -10e-4,-0.002 l -0.134,-0.589 c -0.001,-0.003 0.002,-0.004 0.001,-0.007 -0.001,-0.002 -0.004,-0.004 -0.004,-0.007 l -0.187,-1.281 c 0,-0.003 0.002,-0.006 0.002,-0.009 0,-0.004 -0.004,-0.006 -0.004,-0.009 l -0.053,-1.118 -0.052,-0.407 -0.074,-0.295 -0.289,-0.789 -0.367,-0.736 c -0.002,-0.003 0.001,-0.008 -0.001,-0.011 -0.003,-0.005 -0.008,-0.008 -0.01,-0.013 l -0.212,-0.637 -0.211,-0.498 c -0.002,-0.006 0.002,-0.012 0,-0.019 -0.002,-0.008 -0.011,-0.012 -0.012,-0.02 l -0.081,-0.429 c 0,-0.001 0.001,-0.002 0.001,-0.002 0,-0.001 -0.001,-0.002 -0.001,-0.003 l -0.106,-0.668 c 0,-0.003 0.003,-0.006 0.003,-0.009 -0.001,-0.003 -0.004,-0.005 -0.005,-0.009 L 19.98,17.083 c -0.001,-0.006 0.005,-0.01 0.005,-0.016 0,-0.024 0.013,-0.043 0.023,-0.066 0.01,-0.023 0.015,-0.045 0.033,-0.063 0.004,-0.003 0.003,-0.01 0.008,-0.014 0.016,-0.013 0.037,-0.01 0.056,-0.018 0.019,-0.007 0.031,-0.024 0.052,-0.025 0.006,0 0.009,0.005 0.015,0.005 0.029,0 0.053,0.016 0.08,0.029 0.017,0.009 0.033,0.013 0.047,0.025 0.005,0.005 0.013,0.004 0.018,0.01 l 0.241,0.293 c 0.002,0.002 0.001,0.006 0.002,0.008 0.002,0.002 0.006,0.002 0.008,0.005 l 0.475,0.687 0.042,0.046 0.045,-0.37 v -1.038 l -0.124,-0.597 -0.311,-0.622 -0.569,0.632 c -0.001,0.002 -0.004,10e-4 -0.005,0.003 -0.002,10e-4 -10e-4,0.003 -0.003,0.005 l -0.16,0.159 c -0.009,0.01 -0.022,0.007 -0.033,0.014 -0.01,0.008 -0.013,0.021 -0.024,0.026 l -0.188,0.082 c -0.025,0.011 -0.051,0.016 -0.076,0.016 h -0.351 l -0.034,0.089 c -0.002,0.007 -0.01,0.011 -0.014,0.018 -0.002,0.005 0.001,0.01 -0.002,0.015 l -0.712,1.159 -0.278,0.734 -0.051,0.561 -0.08,1.597 c 0,0.014 -0.013,0.022 -0.016,0.035 -0.003,0.013 0.003,0.025 -0.002,0.037 l -0.265,0.555 -0.011,0.031 0.026,0.471 c 0,0.015 -0.012,0.024 -0.014,0.038 -0.002,0.014 0.007,0.027 0.001,0.04 l -0.155,0.411 -0.073,0.419 v 2.096 c 0,0.001 -0.001,0.002 -0.001,0.003 0,0 0.001,0.001 0.001,0.001 l -0.08,3.446 c 0,0.001 -0.002,0.002 -0.002,0.004 0,10e-4 0.002,0.002 0.002,0.004 l -0.294,4.436 c -10e-4,0.004 -0.005,0.006 -0.005,0.01 0,0.003 0.003,0.005 0.002,0.008 l -0.719,4.506 -0.268,2.299 c 0,0.002 -0.003,0.004 -0.003,0.006 0,0.002 0.002,0.003 10e-4,0.006 l -0.427,2.344 -0.266,2.309 -0.026,2.218 0.104,0.57 v 0 c 0,0 10e-4,0 10e-4,0.001 l 0.267,1.548 c 10e-4,0.003 -0.002,0.005 -0.002,0.008 10e-4,0.002 0.004,0.004 0.004,0.007 l 0.105,1.104 0.324,0.995 h 0.341 l 0.578,-0.184 0.303,-0.433 V 49.72 c 0,-0.017 0.014,-0.026 0.018,-0.042 0.006,-0.023 0.012,-0.043 0.026,-0.063 0.014,-0.02 0.031,-0.032 0.053,-0.046 0.013,-0.009 0.019,-0.023 0.033,-0.029 l 0.129,-0.043 0.216,-0.167 c 0.004,-0.003 0.009,-10e-4 0.013,-0.003 0.004,-0.004 0.004,-0.009 0.008,-0.012 l 0.956,-0.558 0.566,-0.412 0.463,-0.463 0.775,-0.856 c 0.005,-0.006 0.014,-0.004 0.02,-0.009 0.005,-0.005 0.005,-0.014 0.011,-0.018 l 0.418,-0.299 -0.07,-0.117 c -0.004,-0.007 0,-0.016 -0.003,-0.023 -0.004,-0.009 -0.014,-0.014 -0.017,-0.025 l -0.08,-0.293 c -0.002,-0.007 0.004,-0.014 0.003,-0.021 -0.001,-0.008 -0.009,-0.013 -0.009,-0.021 l -0.028,-0.56 c -0.001,-0.02 0.014,-0.034 0.019,-0.051 0.004,-0.017 -0.002,-0.036 0.009,-0.054 z"
     id="path140" /><path
     inkscape:connector-curvature="0"
     style="fill:#000000"
     d="m 11.701,5.892 0.14,0.444 0.18,0.18 c 0.002,0.002 10e-4,0.005 0.003,0.007 0.001,0.002 0.004,0.001 0.006,0.003 l 0.187,0.214 c 0.009,0.011 0.006,0.024 0.012,0.036 0.007,0.012 0.021,0.016 0.025,0.029 l 0.182,0.542 0.117,0.195 V 7.537 c 0,-0.004 0.004,-0.005 0.005,-0.009 10e-4,-0.004 -0.002,-0.006 -10e-4,-0.01 L 12.715,6.806 12.901,5.265 C 12.902,5.254 12.912,5.249 12.915,5.24 12.918,5.231 12.912,5.22 12.916,5.211 l 0.455,-1.017 c 0,0 10e-4,0 10e-4,-0.001 0,0 0,-10e-4 0,-0.002 L 13.576,3.758 13.679,3.272 C 13.682,3.259 13.696,3.253 13.7,3.241 13.706,3.229 13.701,3.215 13.708,3.204 l 0.293,-0.427 c 0.01,-0.013 0.025,-0.014 0.037,-0.024 0.011,-0.01 0.013,-0.026 0.026,-0.034 L 14.626,2.398 C 14.64,2.391 14.654,2.397 14.669,2.393 14.682,2.388 14.69,2.375 14.706,2.374 L 15.399,2.32 c 0.003,0 0.005,0.002 0.008,0.002 0.003,-10e-4 0.004,-0.003 0.007,-0.003 h 0.268 c 0.013,0 0.021,0.011 0.033,0.014 0.013,10e-4 0.023,-0.006 0.035,-0.001 l 0.347,0.133 c 0.002,0 0.002,0.002 0.003,0.003 10e-4,10e-4 0.003,0 0.004,0 l 0.547,0.235 0.16,0.039 0.184,-0.033 0.038,-0.048 0.069,-0.255 c 0.004,-0.014 0.019,-0.02 0.024,-0.032 0.005,-0.012 0.002,-0.027 0.011,-0.038 l 0.107,-0.134 c 0.009,-0.011 0.022,-0.01 0.033,-0.018 0.02,-0.017 0.037,-0.026 0.061,-0.034 0.024,-0.008 0.045,-0.01 0.07,-0.007 0.014,0.001 0.024,-0.008 0.038,-0.004 l 0.268,0.079 c 0.005,0.002 0.006,0.008 0.011,0.01 0.005,0.002 0.01,-0.002 0.015,0 l 0.64,0.295 c 0.001,0 0.002,0.002 0.003,0.003 0.002,0.001 0.004,0 0.006,0.001 l 0.615,0.32 c 0.002,0.002 0.002,0.005 0.005,0.006 0.002,10e-4 0.005,0 0.006,10e-4 l 0.323,0.198 0.604,0.151 v 0 l 0.134,0.026 c 0.007,0.002 0.01,0.01 0.017,0.012 0.023,0.008 0.038,0.023 0.058,0.039 0.02,0.016 0.038,0.028 0.05,0.051 0.004,0.006 0.012,0.008 0.015,0.014 l 0.05,0.135 c 0.003,0.008 -0.002,0.016 0,0.024 0.002,0.008 0.01,0.012 0.012,0.02 l 0.026,0.186 c 0.001,10e-4 -10e-4,0.002 0,0.003 0,10e-4 0.001,0.002 0.001,0.003 l 0.053,0.482 c 0.001,0.004 -0.003,0.006 -0.003,0.01 0.001,0.004 0.005,0.007 0.005,0.011 v 0.898 l 0.05,0.347 0.106,0.477 v 0.001 l 0.213,0.879 c 0.002,0.009 -0.005,0.017 -0.004,0.026 10e-4,0.009 0.01,0.015 0.009,0.024 l -0.026,0.88 c 0,0.005 -0.006,0.008 -0.006,0.012 -0.001,0.005 0.004,0.009 0.003,0.013 l -0.072,0.432 0.132,-0.413 c 0,0 0,0 10e-4,-0.001 0,0 -10e-4,0 -10e-4,-10e-4 L 21.033,6.992 C 21.035,6.988 21.038,6.987 21.039,6.984 21.041,6.981 21.038,6.978 21.04,6.975 l 0.106,-0.241 c 0,0 0,0 0,-0.001 L 21.566,5.739 21.77,4.792 21.747,4.272 21.699,4.059 21.607,3.81 21.444,3.623 21.279,3.434 21.066,3.317 C 21.065,3.316 21.065,3.315 21.064,3.315 21.062,3.313 21.06,3.314 21.058,3.313 L 20.97,3.259 h -0.08 c -0.012,0 -0.023,-0.002 -0.036,-0.004 L 20.72,3.229 C 20.718,3.229 20.716,3.225 20.713,3.225 20.703,3.223 20.694,3.224 20.686,3.22 20.666,3.212 20.66,3.193 20.646,3.18 20.625,3.164 20.607,3.153 20.595,3.131 20.583,3.11 20.584,3.087 20.581,3.062 20.578,3.043 20.566,3.026 20.569,3.007 20.571,3.001 20.578,2.998 20.58,2.991 c 0.002,-0.006 -0.003,-0.013 0,-0.019 l 0.054,-0.134 c 0,0 0,0 0,0 L 20.731,2.598 20.779,2.11 20.707,1.501 20.564,1.259 20.306,1.106 19.417,0.819 C 19.413,0.818 19.412,0.814 19.408,0.812 19.401,0.809 19.394,0.81 19.387,0.807 L 18.563,0.382 18.071,0.148 17.551,0 h -0.749 v 0 l -0.675,0.025 -0.581,0.08 c -10e-4,0 -10e-4,0 -0.002,0 L 14.589,0.259 14.017,0.533 12.81,1.45 12.009,2.2 11.97,2.266 v 0.081 0.27 0.24 c 0,0.006 -0.007,0.01 -0.007,0.017 -10e-4,0.006 0.005,0.011 0.003,0.018 L 11.912,3.186 C 11.911,3.195 11.902,3.2 11.899,3.208 11.897,3.215 11.901,3.223 11.898,3.23 l -0.229,0.507 -0.048,0.413 0.026,1.229 z"
     id="path142" /><path
     inkscape:connector-curvature="0"
     style="fill:#000000"
     d="m 19.595,15.919 0.12,-0.052 0.127,-0.126 0.565,-0.629 -0.314,-0.138 c -0.001,0 -0.001,-10e-4 -0.002,-0.002 -0.001,-10e-4 -0.003,0 -0.005,-10e-4 l -0.721,-0.347 c -0.007,-0.003 -0.008,-0.012 -0.014,-0.017 -0.008,-0.004 -0.018,-0.003 -0.025,-0.009 l -0.329,-0.274 v 0.101 0.489 l 0.046,0.226 0.061,0.123 0.155,0.233 c 0.006,0.009 0.001,0.02 0.006,0.028 0.004,0.009 0.015,0.012 0.018,0.022 l 0.081,0.267 c 0.004,0.014 -0.005,0.025 -0.004,0.039 0.001,0.014 0.012,0.023 0.011,0.037 l -0.004,0.03 z"
     id="path144" /><path
     inkscape:connector-curvature="0"
     style="fill:#000000"
     d="m 12.262,27.84 0.03,0.217 0.25,-0.534 -0.277,-1.166 c 0,-10e-4 10e-4,-0.003 10e-4,-0.005 0,-0.003 -0.003,-0.004 -0.004,-0.006 l -0.133,-0.774 c -10e-4,-0.006 0.004,-0.011 0.003,-0.017 0,-0.006 -0.006,-0.01 -0.006,-0.016 v -0.722 c 0,-0.001 0,-0.001 0,-0.001 l -0.054,-1.909 -0.16,-1.568 c 0,0 0,0 0,-10e-4 0,-0.001 -0.001,-0.001 -0.001,-0.001 l -0.131,-1.498 -0.041,-0.108 -0.003,0.004 -0.237,0.288 c -0.007,0.01 -0.021,0.007 -0.029,0.014 -0.011,0.009 -0.013,0.025 -0.026,0.032 l -0.128,0.071 0.07,0.128 c 0.005,0.01 0,0.021 0.003,0.032 0.004,0.011 0.015,0.016 0.017,0.027 l 0.054,0.32 c 10e-4,0.007 -0.004,0.012 -0.004,0.02 0,0.007 0.007,0.012 0.007,0.019 l -0.025,0.68 0.158,1.7 c 0,0.003 -0.002,0.004 -0.002,0.006 0,0.002 0.002,0.003 0.002,0.005 l 0.054,1.684 c 0,0.001 -0.001,0.001 -0.001,0.002 0,10e-4 0.001,0.002 0.001,0.004 v 0.653 l 0.047,0.279 0.149,0.324 c 0.005,0.011 -10e-4,0.022 10e-4,0.034 0.003,0.011 0.015,0.017 0.016,0.029 l 0.053,0.6 0.127,0.508 0.211,0.61 c 0.002,0.007 -0.002,0.014 -10e-4,0.021 0,0.006 0.008,0.008 0.009,0.015 z"
     id="path146" /><path
     inkscape:connector-curvature="0"
     style="fill:#000000"
     d="M 12.398,19.658 12.31,19.33 12.286,19.367 c -0.004,0.005 -0.012,0.003 -0.017,0.009 -0.005,0.006 -0.003,0.016 -0.009,0.021 l -0.106,0.104 c 0,0 0,0 0,0 l -10e-4,10e-4 c -0.023,0.022 -0.053,0.025 -0.081,0.034 l 0.073,0.192 c 0.003,0.009 -0.003,0.018 -10e-4,0.027 0.002,0.01 0.012,0.014 0.013,0.024 l 0.134,1.523 v 0.001 l 0.16,1.573 c 0,0.003 -0.002,0.004 -0.002,0.007 0,0.003 0.003,0.004 0.003,0.007 l 0.054,1.923 c 0,0.001 -10e-4,0.001 -10e-4,0.002 0,10e-4 10e-4,0.002 10e-4,0.003 v 0.705 l 0.131,0.758 0.047,0.199 0.057,-0.448 0.079,-1.65 c 0,0 0,0 0,-0.001 0,0 0,0 0,-0.001 l 0.107,-1.757 -0.052,-1.458 -0.474,-1.5 c 0,-10e-4 10e-4,-0.003 10e-4,-0.004 C 12.4,19.66 12.399,19.66 12.398,19.658 Z"
     id="path148" /><path
     d="m 15.8,36.804 c 10e-4,-0.002 0.002,-0.002 0.002,-0.004 0,-10e-4 -10e-4,-0.002 -10e-4,-0.004 l 0.72,-4.501 0.293,-4.431 c 0,0 0.001,0 0.001,-0.001 l 0.079,-3.432 c 0,0 0,0 0,-0.001 v -2.11 c 0,-0.006 0.006,-0.01 0.007,-0.017 0,-0.006 -0.005,-0.01 -0.004,-0.017 l 0.08,-0.455 c 0.001,-0.007 0.008,-0.01 0.01,-0.016 0.002,-0.007 -0.003,-0.013 -10e-4,-0.019 l 0.147,-0.39 -0.024,-0.447 -0.048,-0.165 c 0,-0.001 0.002,-0.002 0.001,-0.003 C 17.061,20.79 17.06,20.789 17.06,20.788 l -0.049,-0.197 -0.5,-1.051 c 0,-10e-4 0,-0.002 0,-0.003 -10e-4,-10e-4 -0.002,-10e-4 -0.002,-0.002 L 16.031,18.448 15.475,17.47 c -10e-4,-0.002 0,-0.004 -10e-4,-0.007 -0.002,-0.003 -0.005,-0.004 -0.007,-0.007 l -0.453,-0.99 v 0 c 0,0 -10e-4,0 -10e-4,-0.001 l -0.107,-0.239 c -0.003,-0.006 0.002,-0.013 -0.001,-0.02 -0.003,-0.008 -0.011,-0.012 -0.013,-0.021 l -0.054,-0.267 c -10e-4,-0.007 0.005,-0.012 0.004,-0.02 -0.001,-0.007 -0.007,-0.011 -0.007,-0.018 V 15.676 L 14.823,15.648 14.647,15.59 h -0.315 c -0.004,0 -0.007,-10e-4 -0.01,-10e-4 l -0.535,-0.026 c 0,0 -0.001,-0.001 -0.002,-0.001 -0.01,-10e-4 -0.02,-0.002 -0.03,-0.004 L 13.167,15.424 C 13.16,15.422 13.157,15.414 13.15,15.412 13.145,15.41 13.14,15.41 13.135,15.408 l -0.246,1.387 c -0.003,0.017 -0.017,0.026 -0.024,0.042 -0.005,0.012 0,0.025 -0.008,0.036 l -0.534,0.748 c -0.006,0.009 -0.019,0.006 -0.026,0.014 -0.01,0.011 -0.01,0.026 -0.023,0.034 l -0.311,0.208 0.01,0.006 c 0.02,0.012 0.024,0.034 0.039,0.052 0.013,0.016 0.034,0.023 0.041,0.044 l 0.08,0.212 c 0.001,0.004 -0.002,0.01 -10e-4,0.014 0.002,0.005 0.008,0.008 0.009,0.013 l 0.079,0.366 0.213,0.798 0.479,1.519 c 0.002,0.009 -0.004,0.017 -0.002,0.025 0.002,0.008 0.01,0.016 0.011,0.024 l 0.054,1.497 c 0,0.003 -0.003,0.005 -0.003,0.009 0,0.004 0.004,0.006 0.003,0.01 l -0.108,1.764 v 0 l -0.08,1.652 c 0,0.003 -0.003,0.005 -0.003,0.008 0,0.002 0.002,0.004 0.002,0.007 l -0.188,1.497 c -0.001,0.011 -0.011,0.018 -0.015,0.028 -0.003,0.01 0.003,0.02 -10e-4,0.029 l -0.568,1.213 0.159,2.943 c 0,0.002 -10e-4,0.003 -10e-4,0.005 0,0.002 0.002,0.003 0.002,0.005 v 0.241 c 0,0.014 -0.012,0.022 -0.015,0.036 -0.002,0.013 0.005,0.025 0,0.037 l -0.137,0.32 c -10e-4,0.002 -0.003,0.003 -0.004,0.004 0,10e-4 10e-4,0.003 0,0.004 l -0.258,0.542 -0.103,0.459 c -10e-4,0.003 -0.004,0.004 -0.004,0.007 0,10e-4 10e-4,0.003 0,0.005 l -0.08,0.268 c -0.003,0.012 -0.015,0.019 -0.021,0.029 -0.004,0.008 0,0.018 -0.006,0.025 l -0.183,0.261 -0.308,0.488 -0.206,0.595 c -0.002,0.005 -0.007,0.007 -0.009,0.012 -0.002,0.003 10e-4,0.008 -10e-4,0.011 l -0.307,0.612 -0.102,0.797 c 0,0.004 -0.006,0.007 -0.007,0.012 0,0.004 0.003,0.008 0.002,0.012 l -0.185,0.711 -0.052,0.364 c -0.001,0.012 -0.013,0.019 -0.016,0.029 -0.003,0.01 0.002,0.02 -0.002,0.029 l -0.24,0.48 c -10e-4,0.001 -10e-4,0.001 -0.002,0.002 0,0 0,10e-4 0,0.002 l -0.897,1.688 -0.369,1.527 c 0,0.002 -0.003,0.004 -0.004,0.006 0,0.002 0.001,0.004 0.001,0.006 l -0.264,0.843 -0.158,0.792 c -10e-4,0.003 -0.004,0.005 -0.005,0.008 0,0.002 0.002,0.004 0.001,0.007 L 7.992,43.744 C 7.99,43.752 7.982,43.756 7.979,43.764 7.977,43.77 7.98,43.777 7.977,43.783 L 7.578,44.531 C 7.573,44.54 7.564,44.544 7.558,44.552 7.554,44.557 7.556,44.564 7.552,44.568 L 6.43,45.825 C 6.424,45.832 6.414,45.829 6.407,45.835 6.4,45.841 6.4,45.853 6.392,45.857 l -0.775,0.507 c -0.005,0.003 -0.011,0.002 -0.016,0.005 -0.003,0.002 -0.004,0.006 -0.008,0.008 l -0.169,0.079 0.045,0.09 1.122,0.586 v 0.001 H 6.592 L 8.3,48.041 c 0,0 0,0 0,0 l 0.802,0.428 c 0.004,0.002 0.005,0.009 0.009,0.012 0.005,0.003 0.011,0 0.015,0.004 l 0.735,0.551 1.504,0.726 2.157,0.235 c 10e-4,0 10e-4,10e-4 0.002,10e-4 0.001,0 0.002,-10e-4 0.002,-10e-4 l 0.075,0.01 0.072,-0.158 0.236,-0.687 c 0,-10e-4 0.002,-10e-4 0.002,-0.002 0.001,-0.002 0,-0.003 0,-0.005 l 0.559,-1.435 0.265,-0.952 c 0.006,-0.017 0.022,-0.023 0.03,-0.039 0.009,-0.014 0.007,-0.033 0.019,-0.044 L 14.9,46.568 14.811,46.077 c -10e-4,-0.006 0.004,-0.012 0.004,-0.018 0,-0.007 -0.007,-0.011 -0.007,-0.018 l 0.026,-2.243 c 0,-0.004 0.003,-0.007 0.003,-0.01 10e-4,-0.003 -0.003,-0.006 -0.002,-0.009 l 0.267,-2.325 c 10e-4,-0.002 0.003,-0.003 0.004,-0.005 0,-0.002 -0.002,-0.004 -0.002,-0.006 l 0.428,-2.344 z"
     id="path150"
     inkscape:connector-curvature="0"
     style="fill:#000000" /><path
     inkscape:connector-curvature="0"
     style="fill:#000000"
     d="m 23.175,20.34 c 0.004,0.012 0.017,0.021 0.018,0.034 l 0.025,0.453 c 0,10e-4 -0.002,0.003 -0.002,0.005 0,0.002 0.003,0.003 0.003,0.005 v 0.494 l 0.089,0.107 c 0.009,0.011 0.006,0.025 0.012,0.037 0.007,0.012 0.021,0.017 0.024,0.03 l 0.102,0.342 -0.097,-0.769 c 0,0 0,0 0,0 L 23.268,20.49 c 0,-0.003 0.002,-0.005 0.002,-0.008 0,-0.003 -0.003,-0.005 -0.003,-0.007 L 23.24,19.994 v 0 l -0.021,-0.27 -0.062,-0.098 -0.019,0.164 -0.026,0.305 v 0.084 l 0.061,0.12 c 0.006,0.013 -10e-4,0.027 0.002,0.041 z"
     id="path152" /><path
     inkscape:connector-curvature="0"
     style="fill:#000000"
     d="m 23.453,38.661 c 0,0.003 0.003,0.007 0.002,0.011 l -0.293,1.408 -0.239,1.521 c -10e-4,0.006 -0.007,0.009 -0.008,0.015 -10e-4,0.005 0.002,0.009 0.001,0.014 l -0.374,1.171 0.14,0.219 c 0.003,0.005 0,0.011 0.002,0.016 0.003,0.004 0.01,0.005 0.012,0.011 l 0.043,0.101 0.136,-0.376 0.345,-1.139 0.209,-1.155 0.106,-1.221 c 0,-0.003 0.003,-0.004 0.003,-0.007 0.001,-0.003 -0.002,-0.005 -0.001,-0.008 l 0.184,-1.08 0.027,-1.359 -0.131,-0.784 -0.022,1.121 c 0,0.003 -0.003,0.004 -0.003,0.006 0,0.002 0.001,0.004 0.001,0.006 L 23.46,38.65 c -0.002,0.004 -0.006,0.006 -0.007,0.011 z"
     id="path154" /><path
     inkscape:connector-curvature="0"
     style="fill:#000000"
     d="m 22.82,20.526 -0.058,0.04 c -0.032,0.023 -0.07,0.034 -0.108,0.034 -0.049,0 -0.097,-0.019 -0.134,-0.056 l -0.12,-0.12 -0.01,0.241 0.158,1.135 c 0,0.002 -0.003,0.005 -0.002,0.008 0,0.003 0.003,0.005 0.003,0.008 l 0.054,1.096 c 10e-4,0.008 -0.007,0.013 -0.008,0.021 0,0.009 0.007,0.015 0.006,0.023 l -0.213,1.145 -0.08,0.583 c -0.001,0.007 -0.009,0.012 -0.011,0.019 -0.002,0.006 0.004,0.012 10e-4,0.019 l -0.114,0.319 0.146,0.556 c 0.002,0.004 -0.002,0.009 -10e-4,0.013 10e-4,0.004 0.006,0.007 0.007,0.012 l 0.159,1.336 c 10e-4,0.002 -0.002,0.003 -0.001,0.005 0,0.002 0.002,0.003 0.002,0.005 l 0.161,2.566 c 0,0.002 -0.002,0.003 -0.002,0.006 10e-4,0.002 0.003,0.003 0.003,0.006 v 0.513 l 0.396,1.634 c 0.001,0.003 -0.002,0.005 -10e-4,0.008 0,0.003 0.004,0.004 0.004,0.007 l 0.427,2.698 c 0,0.002 -0.002,0.004 -0.001,0.007 0,0.002 0.002,0.003 0.002,0.005 l 0.018,0.181 -0.049,-1.411 c -0.001,-0.019 0.013,-0.031 0.018,-0.048 0.004,-0.019 -0.003,-0.036 0.007,-0.053 l 0.082,-0.144 v -0.255 l -0.077,-0.549 v -0.001 l -0.188,-1.171 c 0,-10e-4 0.002,-0.002 0.002,-0.003 -10e-4,-0.002 -0.002,-0.002 -0.003,-0.004 l -0.132,-1.11 -0.128,-0.538 -0.21,-0.552 c -0.002,-0.005 0.002,-0.01 0.001,-0.015 -0.002,-0.005 -0.008,-0.008 -0.009,-0.014 l -0.134,-0.642 c -0.001,-0.006 0.003,-0.01 0.003,-0.016 0,-0.005 -0.006,-0.009 -0.007,-0.014 l -0.027,-0.586 c 0,-10e-4 10e-4,-0.002 10e-4,-0.004 0,-0.002 -0.002,-0.003 -0.002,-0.005 v -2.245 c 0,-0.003 0.004,-0.005 0.004,-0.008 0,-0.003 -0.003,-0.005 -0.003,-0.008 L 22.786,23.657 22.84,21.4 c 0,0 -0.001,0 -0.001,-10e-4 v -0.56 z"
     id="path156" /></svg>