<?xml version="1.0" encoding="UTF-8" standalone="no"?>
<svg
   xmlns:dc="http://purl.org/dc/elements/1.1/"
   xmlns:cc="http://creativecommons.org/ns#"
   xmlns:rdf="http://www.w3.org/1999/02/22-rdf-syntax-ns#"
   xmlns:svg="http://www.w3.org/2000/svg"
   xmlns="http://www.w3.org/2000/svg"
   xmlns:sodipodi="http://sodipodi.sourceforge.net/DTD/sodipodi-0.dtd"
   xmlns:inkscape="http://www.inkscape.org/namespaces/inkscape"
   data-name="Icon 1"
   viewBox="0 0 19 21"
   x="0px"
   y="0px"
   version="1.1"
   id="svg14"
   sodipodi:docname="exerint.svg"
   inkscape:version="0.92.4 (5da689c313, 2019-01-14)"
   width="19"
   height="21">
  <metadata
     id="metadata20">
    <rdf:RDF>
      <cc:Work
         rdf:about="">
        <dc:format>image/svg+xml</dc:format>
        <dc:type
           rdf:resource="http://purl.org/dc/dcmitype/StillImage" />
      </cc:Work>
    </rdf:RDF>
  </metadata>
  <defs
     id="defs18" />
  <sodipodi:namedview
     pagecolor="#ffffff"
     bordercolor="#666666"
     borderopacity="1"
     objecttolerance="10"
     gridtolerance="10"
     guidetolerance="10"
     inkscape:pageopacity="0"
     inkscape:pageshadow="2"
     inkscape:window-width="1366"
     inkscape:window-height="706"
     id="namedview16"
     showgrid="true"
     inkscape:zoom="7.552"
     inkscape:cx="7.393644"
     inkscape:cy="-5.6648304"
     inkscape:window-x="-8"
     inkscape:window-y="-8"
     inkscape:window-maximized="1"
     inkscape:current-layer="svg14">
    <inkscape:grid
       type="xygrid"
       id="grid52"
       originx="-3.29"
       originy="-18.1" />
  </sodipodi:namedview>
  <title
     id="title2">ID Card</title>
  <path
     inkscape:connector-curvature="0"
     d="M 6.71,4.1 A 1.16,1.16 0 0 0 5.5,3 1.16,1.16 0 0 0 4.29,4.1 1.16,1.16 0 0 0 5.5,5.199999 1.16,1.16 0 0 0 6.71,4.1 Z"
     id="path4" />
  <polygon
     transform="translate(-3,-2)"
     points="11,11.04 8.5,10.04 6,11.04 6,13 11,13 "
     id="polygon6" />
  <path
     inkscape:connector-curvature="0"
     d="M 0,21 H 19 V 0 H 0 Z M 11,7.999999 v -1 h 6 v 1 z M 17,10 v 1 H 11 V 10 Z M 11,5 V 4 h 6 V 5 Z M 5.5,6.999999 9,8.4 V 12 H 2 V 8.36 Z M 3.29,4.1 A 2.16,2.16 0 0 1 5.5,2 2.16,2.16 0 0 1 7.71,4.1 2.16,2.16 0 0 1 5.5,6.199999 2.16,2.16 0 0 1 3.29,4.1 Z M 2,14 h 15 v 1 H 2 Z m 12,3 v 1 H 5 v -1 z"
     id="path8" />
</svg>
